<svg width="26" height="10" viewBox="0 0 26 10" fill="none" xmlns="http://www.w3.org/2000/svg">
<path d="M2.91464 8.82191C2.90282 7.62828 2.90282 6.411 2.90282 5.0401H3.61192C5.32555 5.0401 6.08192 5.67828 6.08192 6.94282C6.08192 8.17191 5.26646 8.82191 3.74192 8.82191H2.91464ZM3.74192 1.09282C5.08919 1.09282 5.70373 1.61282 5.70373 2.74737C5.70373 3.95282 5.01828 4.55555 3.54101 4.55555H2.90282C2.90282 3.37373 2.90282 2.22737 2.91464 1.09282H3.74192ZM0.350098 0.608276V1.03373L1.5201 1.16373C1.54373 2.31009 1.54373 3.46828 1.54373 4.62646V5.20555C1.54373 6.411 1.54373 7.59282 1.5201 8.76282L0.350098 8.89282V9.31828H3.93101C6.57828 9.31828 7.5001 8.11282 7.5001 6.931C7.5001 5.8201 6.73192 4.96919 4.86464 4.74464C6.44828 4.43737 7.02737 3.6101 7.02737 2.7001C7.02737 1.48282 6.09373 0.608276 4.14373 0.608276H0.350098Z" fill="white"/>
<path d="M9.90261 5.70191C9.99715 4.08282 10.7653 3.38555 11.5335 3.38555C12.3372 3.38555 12.8926 4.05919 12.8926 4.93373C12.8926 5.4301 12.7626 5.70191 12.219 5.70191H9.90261ZM14.0272 6.16282C14.0862 5.97373 14.1099 5.73737 14.1099 5.44191C14.1099 3.941 13.1172 2.92464 11.6162 2.92464C10.009 2.92464 8.54351 4.17737 8.54351 6.22191C8.54351 8.30191 9.80806 9.49555 11.5926 9.49555C12.739 9.49555 13.6017 8.92828 14.0744 7.99464L13.8381 7.82919C13.389 8.39646 12.869 8.73919 12.0299 8.73919C10.8126 8.73919 9.92624 7.92373 9.89079 6.16282H14.0272Z" fill="white"/>
<path d="M18.7834 8.491C18.4525 8.73919 18.2161 8.85737 17.9207 8.85737C17.448 8.85737 17.1525 8.57373 17.1525 7.90009V3.63373H18.8307V3.10191H17.1643L17.2234 1.27009H16.3725L15.9707 3.07828L14.8243 3.20828V3.63373H15.8998V6.75373C15.8998 7.23828 15.888 7.54555 15.888 7.90009C15.888 8.98737 16.4434 9.49555 17.4361 9.49555C18.157 9.49555 18.6889 9.22373 19.0198 8.751L18.7834 8.491Z" fill="white"/>
<path d="M23.2754 8.0301C22.6136 8.56191 22.3182 8.72737 21.8927 8.72737C21.3018 8.72737 20.8882 8.4201 20.8882 7.72282C20.8882 7.13191 21.16 6.61191 22.2 6.19828C22.4482 6.10373 22.85 5.97373 23.2754 5.85555V8.0301ZM25.5091 8.53828C25.3082 8.77464 25.1782 8.86919 24.9654 8.86919C24.6936 8.86919 24.5163 8.68009 24.5163 8.08919V5.18191C24.5163 3.56282 23.8663 2.92464 22.4245 2.92464C20.9709 2.92464 20.0136 3.551 19.8127 4.56737C19.86 4.9101 20.0845 5.08737 20.4391 5.08737C20.8054 5.08737 21.0536 4.851 21.1482 4.35464L21.3491 3.4801C21.6091 3.40919 21.8336 3.38555 22.0463 3.38555C22.9327 3.38555 23.2754 3.72828 23.2754 4.99282V5.47737C22.7791 5.59555 22.2591 5.74919 21.8573 5.86737C20.1318 6.45828 19.6354 7.03737 19.6354 7.91191C19.6354 8.92828 20.3682 9.49555 21.3372 9.49555C22.1645 9.49555 22.6254 9.14101 23.3109 8.44373C23.4291 9.08191 23.8545 9.47191 24.5163 9.47191C25.0482 9.47191 25.4263 9.28282 25.71 8.751L25.5091 8.53828Z" fill="white"/>
</svg>
