<svg width="166" height="32" viewBox="0 0 166 32" fill="none" xmlns="http://www.w3.org/2000/svg">
<g clip-path="url(#clip0_76_229)">
<path d="M27.5674 14.4429L29.5661 14.3655L30.396 13.8985C30.864 13.883 31.4458 13.8959 31.9293 13.9346C31.482 10.4645 29.9203 7.34269 27.6113 4.93811L27.5674 6.02172V14.4429Z" fill="#B14C59"/>
<path d="M26.1921 18.5632C22.5051 19.781 17.52 20.6608 14.0915 20.9214C13.8071 20.9472 13.546 20.9472 13.3133 20.9472C12.6126 20.9472 12.1446 20.5318 11.9119 19.8584C11.8343 19.652 11.8084 19.2624 11.8084 18.7697V9.85826C11.3404 9.54608 10.5622 9.26228 9.80977 9.10747L9.91319 8.56309C9.93905 8.45989 9.99076 8.43409 10.1459 8.43409C10.95 8.43409 12.3281 8.51149 12.9254 8.64049C13.1581 8.69209 13.2641 8.82109 13.2641 9.08167L13.2383 10.2736V19.2392C13.2383 19.5488 13.3417 19.6804 13.6804 19.6804C16.9771 19.603 22.6395 18.8238 26.1973 17.7634V5.55995C25.7035 5.04136 24.8735 4.60018 23.9375 4.31638L24.0926 3.79779C24.1185 3.72039 24.1702 3.69459 24.3538 3.69459C24.9924 3.71523 26.0137 3.90357 26.7584 4.10739C23.9142 1.55317 20.1548 0 16.0333 0C7.17763 0 0 7.16214 0 15.9987C0 24.8353 7.17763 31.9974 16.0333 31.9974C19.9221 31.9974 23.485 30.6171 26.2619 28.3183C26.2154 27.1444 26.1921 25.1862 26.1921 24.1309V18.5632Z" fill="#B14C59"/>
<path d="M27.5677 23.5892C27.5677 24.665 27.4643 26.1408 27.291 27.3895C30.2386 24.487 32.0692 20.457 32.0692 15.9988C32.0692 15.7382 32.0614 15.4802 32.0485 15.2222L27.5677 15.2712V23.5892Z" fill="#B14C59"/>
<path d="M50.8124 3.79522C50.8383 3.71782 50.89 3.69202 51.0735 3.69202C51.9035 3.71782 53.3851 4.03 54.0599 4.288C54.2668 4.3654 54.3443 4.52278 54.3443 4.75499L54.2926 6.02436V23.5917C54.2926 25.0159 54.1116 27.1418 53.8246 28.5144H52.9946C52.9429 27.374 52.9171 25.2507 52.9171 24.1361V18.7439C48.8913 20.0132 43.49 20.9472 39.7512 21.1794C39.4668 21.2052 39.2056 21.2052 38.9729 21.2052C38.2464 21.2052 37.7784 20.7898 37.5457 20.0906C37.4681 19.8842 37.4423 19.4946 37.4423 19.0019V9.70088C37.026 9.39128 36.377 9.1307 35.7021 9.0275L35.8056 8.53472C35.8314 8.45732 35.909 8.40571 36.0641 8.40571C36.739 8.40571 38.2722 8.50892 38.9212 8.6405C40.5062 8.6147 43.9063 8.5115 44.7647 8.43409L45.4395 8.07031C46.0368 8.07031 47.0245 8.12191 47.5158 8.22511C47.6968 8.25091 47.7743 8.35411 47.7743 8.50892C47.7743 8.8211 47.6968 9.0791 47.5933 9.1823C47.5158 9.2597 47.4123 9.3113 47.2805 9.3113L38.8928 9.54608V19.4946C38.8928 19.7784 38.9962 19.91 39.3349 19.91C42.9186 19.8584 49.0464 19.056 52.9145 17.9157V5.55737C52.4206 5.03879 51.5907 4.60018 50.6547 4.3138L50.8124 3.79522Z" fill="#AEACAB"/>
<path d="M80.0248 22.423C80.9349 22.4488 82.2071 22.5778 82.7785 22.7609C82.9595 22.8125 83.0888 22.9415 83.0888 23.1247C83.0888 23.4885 82.8302 23.7981 82.6208 23.9013C81.9201 23.8239 80.4928 23.7723 79.7378 23.7723C77.9201 23.7465 65.561 23.9013 64.2604 23.9787C63.6114 24.0303 62.391 24.2625 61.7937 24.4715C60.8862 24.2135 60.0019 23.7723 59.4046 23.3053C59.3271 23.2537 59.3012 23.2021 59.3271 23.1247L59.4822 22.7867C60.2863 22.9415 61.4292 23.0473 62.1816 23.0473C62.934 23.0473 66.7245 23.0215 70.5434 22.9699V17.4487C67.1408 17.2423 64.6482 15.0131 64.6482 11.93C64.6482 8.64048 67.4278 6.35974 71.1148 6.35974C74.8019 6.35974 77.5814 8.64048 77.5814 11.93C77.5814 14.9615 75.1923 17.1391 71.9215 17.4487V22.9415C75.2725 22.8899 78.3881 22.8383 79.1664 22.7867L80.0248 22.423ZM71.12 16.4657C73.8737 16.4657 76.0792 14.7551 76.0792 11.9326C76.0792 9.08166 73.8711 7.37111 71.12 7.37111C68.3663 7.37111 66.1608 9.08166 66.1608 11.9326C66.1608 14.7551 68.3663 16.4657 71.12 16.4657Z" fill="#AEACAB"/>
<path d="M94.9688 16.4089C97.7819 17.4538 98.8601 18.6948 98.8601 20.5369C98.8601 22.7119 97.0657 24.6108 93.3709 24.6108C91.7161 24.6108 90.4466 24.2522 88.9831 23.5659L88.9004 20.426H90.0587L90.6379 23.0679C91.3826 23.4266 92.2668 23.6175 93.3968 23.6175C95.8789 23.6175 97.0942 22.5158 97.0942 20.9755C97.0942 19.6546 96.2952 18.9115 94.1414 18.1401L92.7891 17.6447C90.6095 16.8475 89.1745 15.7175 89.1745 13.7076C89.1745 11.5327 90.9404 9.77051 94.113 9.77051C95.7393 9.77051 96.8718 10.1833 98.1956 10.9805L98.1129 13.8702H97.0088L96.5667 11.4191C95.7393 10.9522 94.9119 10.7303 94.0845 10.7303C91.9592 10.7303 90.9378 11.7752 90.9378 13.1813C90.9378 14.5848 91.7652 15.2453 93.7794 15.9884L94.9688 16.4089Z" fill="#AEACAB"/>
<path d="M109.122 23.3749C108.406 24.1722 107.328 24.6134 106.004 24.6134C103.853 24.6134 102.777 23.4575 102.832 21.089C102.832 20.4569 102.86 19.8506 102.86 18.8315V11.2875H100.047V10.351L102.917 10.1033L103.496 5.9469H104.848L104.711 10.1601H108.851V11.2901H104.685V21.0349C104.685 22.7686 105.347 23.4859 106.534 23.4859C107.333 23.4859 107.886 23.2382 108.66 22.7428L109.122 23.3749Z" fill="#AEACAB"/>
<path d="M125.372 23.4292V24.2264L121.566 24.4457L121.401 21.6644C119.912 23.5092 118.063 24.6108 116.02 24.6108C113.481 24.6108 112.075 23.2073 112.103 19.1592L112.186 11.4501L109.869 11.1199V10.3227L113.786 9.99243L114.063 10.3227L113.926 14.4533V18.9967C113.926 22.0256 114.89 23.0706 116.739 23.0706C118.368 23.0706 119.94 22.245 121.375 20.6763L121.429 11.4527L119.139 11.1225V10.3253L123.001 9.99501L123.304 10.3253L123.193 14.4559V23.1273L125.372 23.4292Z" fill="#AEACAB"/>
<path d="M142.231 23.4291V24.2263L137.817 24.474L137.734 22.3533C136.576 23.8393 135.141 24.6108 133.321 24.6108C129.76 24.6108 127.307 21.6102 127.307 17.3429C127.307 12.7169 129.983 9.77307 133.652 9.77307C135.03 9.77307 136.439 10.3226 137.734 11.8371V4.01962L135.141 3.88288V3.05728L139.198 2.12073L139.612 2.34003L139.529 6.52482V23.1814L142.231 23.4291ZM137.706 12.8588C136.328 11.5378 135.167 11.0141 133.926 11.0141C131.387 11.0141 129.264 12.8872 129.264 17.2913C129.264 21.4219 131.195 23.3749 133.817 23.3749C135.281 23.3749 136.411 22.8512 137.709 21.3367V12.8588H137.706Z" fill="#AEACAB"/>
<path d="M150.068 23.4292V24.2264H143.5V23.4292L145.957 23.1273C145.985 21.6128 146.011 19.4121 146.011 17.9802V16.4657C146.011 14.7319 145.983 13.4651 145.928 12.0048L143.363 11.8113V11.0141L147.503 9.82989L147.862 10.1059L147.808 13.8779V17.9802C147.808 19.4121 147.836 21.6154 147.862 23.1273L150.068 23.4292ZM145.238 4.34992C145.238 3.41337 145.928 2.83545 146.784 2.83545C147.64 2.83545 148.356 3.41337 148.356 4.34992C148.356 5.23229 147.64 5.83601 146.784 5.83601C145.928 5.83601 145.238 5.23229 145.238 4.34992Z" fill="#AEACAB"/>
<path d="M152.137 17.2345C152.137 12.2525 155.475 9.77307 158.813 9.77307C162.151 9.77307 165.517 12.2499 165.517 17.2345C165.517 22.2449 162.151 24.6134 158.813 24.6134C155.446 24.6134 152.137 22.2449 152.137 17.2345ZM163.477 17.2345C163.477 13.1323 161.683 10.738 158.815 10.738C155.919 10.738 154.179 13.1323 154.179 17.2345C154.179 21.3625 155.917 23.62 158.815 23.62C161.683 23.6226 163.477 21.3651 163.477 17.2345Z" fill="#AEACAB"/>
</g>
<defs>
<clipPath id="clip0_76_229">
<rect width="165.517" height="32" fill="white"/>
</clipPath>
</defs>
</svg>
