<svg width="166" height="32" viewBox="0 0 166 32" fill="none" xmlns="http://www.w3.org/2000/svg">
<g clip-path="url(#clip0_50_323)">
<path d="M27.5677 14.443L29.5663 14.3656L30.3963 13.8986C30.8643 13.8831 31.4461 13.896 31.9296 13.9347C31.4823 10.4646 29.9206 7.34275 27.6116 4.93817L27.5677 6.02178V14.443Z" fill="#B14C59"/>
<path d="M26.1921 18.5632C22.5051 19.781 17.52 20.6608 14.0915 20.9214C13.8071 20.9472 13.546 20.9472 13.3133 20.9472C12.6126 20.9472 12.1446 20.5318 11.9119 19.8584C11.8343 19.652 11.8084 19.2624 11.8084 18.7697V9.85826C11.3404 9.54608 10.5622 9.26228 9.80977 9.10747L9.91319 8.56309C9.93905 8.45989 9.99076 8.43409 10.1459 8.43409C10.95 8.43409 12.3281 8.51149 12.9254 8.64049C13.1581 8.69209 13.2641 8.82109 13.2641 9.08167L13.2383 10.2736V19.2392C13.2383 19.5488 13.3417 19.6804 13.6804 19.6804C16.9771 19.603 22.6395 18.8238 26.1973 17.7634V5.55995C25.7035 5.04136 24.8735 4.60018 23.9375 4.31638L24.0926 3.79779C24.1185 3.72039 24.1702 3.69459 24.3538 3.69459C24.9924 3.71523 26.0137 3.90357 26.7584 4.10739C23.9142 1.55317 20.1548 0 16.0333 0C7.17763 0 0 7.16214 0 15.9987C0 24.8353 7.17763 31.9974 16.0333 31.9974C19.9221 31.9974 23.485 30.6171 26.2619 28.3183C26.2154 27.1444 26.1921 25.1862 26.1921 24.1309V18.5632Z" fill="#B14C59"/>
<path d="M27.5677 23.5891C27.5677 24.665 27.4643 26.1408 27.291 27.3895C30.2386 24.487 32.0692 20.457 32.0692 15.9987C32.0692 15.7381 32.0614 15.4801 32.0485 15.2221L27.5677 15.2712V23.5891Z" fill="#B14C59"/>
<path d="M50.8122 3.79522C50.8381 3.71782 50.8898 3.69202 51.0734 3.69202C51.9034 3.71782 53.3849 4.03 54.0597 4.288C54.2666 4.3654 54.3442 4.52278 54.3442 4.75499L54.2925 6.02436V23.5917C54.2925 25.0159 54.1115 27.1418 53.8245 28.5144H52.9945C52.9428 27.374 52.9169 25.2507 52.9169 24.1361V18.7439C48.8911 20.0132 43.4898 20.9472 39.751 21.1794C39.4666 21.2052 39.2055 21.2052 38.9728 21.2052C38.2462 21.2052 37.7782 20.7898 37.5455 20.0906C37.4679 19.8842 37.4421 19.4946 37.4421 19.0019V9.70088C37.0258 9.39128 36.3768 9.1307 35.702 9.0275L35.8054 8.53472C35.8313 8.45732 35.9088 8.40571 36.064 8.40571C36.7388 8.40571 38.2721 8.50892 38.9211 8.6405C40.506 8.6147 43.9061 8.5115 44.7645 8.43409L45.4394 8.07031C46.0366 8.07031 47.0243 8.12191 47.5156 8.22511C47.6966 8.25091 47.7742 8.35411 47.7742 8.50892C47.7742 8.8211 47.6966 9.0791 47.5932 9.1823C47.5156 9.2597 47.4122 9.3113 47.2803 9.3113L38.8926 9.54608V19.4946C38.8926 19.7784 38.996 19.91 39.3348 19.91C42.9184 19.8584 49.0463 19.056 52.9143 17.9157V5.55737C52.4205 5.03879 51.5905 4.60018 50.6545 4.3138L50.8122 3.79522Z" fill="#AEACAB"/>
<path d="M80.0243 22.423C80.9345 22.4488 82.2066 22.5778 82.778 22.7609C82.959 22.8125 83.0883 22.9415 83.0883 23.1247C83.0883 23.4885 82.8297 23.7981 82.6203 23.9013C81.9196 23.8239 80.4923 23.7723 79.7373 23.7723C77.9197 23.7465 65.5605 23.9013 64.2599 23.9787C63.6109 24.0303 62.3905 24.2625 61.7933 24.4715C60.8857 24.2135 60.0014 23.7723 59.4042 23.3053C59.3266 23.2537 59.3007 23.2021 59.3266 23.1247L59.4817 22.7867C60.2859 22.9415 61.4287 23.0473 62.1811 23.0473C62.9335 23.0473 66.724 23.0215 70.5429 22.9699V17.4487C67.1403 17.2423 64.6478 15.0131 64.6478 11.93C64.6478 8.64048 67.4273 6.35974 71.1144 6.35974C74.8014 6.35974 77.5809 8.64048 77.5809 11.93C77.5809 14.9615 75.1919 17.1391 71.9211 17.4487V22.9415C75.272 22.8899 78.3877 22.8383 79.1659 22.7867L80.0243 22.423ZM71.1195 16.4657C73.8732 16.4657 76.0787 14.7551 76.0787 11.9326C76.0787 9.08166 73.8706 7.37111 71.1195 7.37111C68.3659 7.37111 66.1604 9.08166 66.1604 11.9326C66.1604 14.7551 68.3659 16.4657 71.1195 16.4657Z" fill="#AEACAB"/>
<path d="M94.9691 16.4089C97.7822 17.4538 98.8604 18.6948 98.8604 20.537C98.8604 22.7119 97.066 24.6108 93.3712 24.6108C91.7164 24.6108 90.4469 24.2522 88.9834 23.5659L88.9007 20.426H90.059L90.6382 23.068C91.3829 23.4266 92.2672 23.6175 93.3971 23.6175C95.8792 23.6175 97.0945 22.5158 97.0945 20.9756C97.0945 19.6546 96.2955 18.9116 94.1417 18.1401L92.7894 17.6448C90.6098 16.8475 89.1748 15.7175 89.1748 13.7077C89.1748 11.5327 90.9407 9.77054 94.1133 9.77054C95.7396 9.77054 96.8721 10.1833 98.1959 10.9806L98.1132 13.8702H97.0091L96.567 11.4192C95.7396 10.9522 94.9122 10.7303 94.0848 10.7303C91.9595 10.7303 90.9382 11.7752 90.9382 13.1813C90.9382 14.5849 91.7655 15.2453 93.7797 15.9884L94.9691 16.4089Z" fill="#AEACAB"/>
<path d="M109.123 23.375C108.406 24.1722 107.328 24.6134 106.004 24.6134C103.853 24.6134 102.778 23.4576 102.832 21.0891C102.832 20.457 102.86 19.8507 102.86 18.8316V11.2876H100.047V10.3511L102.917 10.1034L103.496 5.94696H104.849L104.712 10.1601H108.851V11.2902H104.686V21.0349C104.686 22.7687 105.348 23.4859 106.534 23.4859C107.333 23.4859 107.887 23.2383 108.66 22.7429L109.123 23.375Z" fill="#AEACAB"/>
<path d="M125.373 23.4292V24.2264L121.567 24.4457L121.402 21.6644C119.912 23.5092 118.064 24.6108 116.021 24.6108C113.482 24.6108 112.075 23.2073 112.104 19.1592L112.187 11.4501L109.87 11.1199V10.3227L113.787 9.99243L114.064 10.3227L113.927 14.4533V18.9967C113.927 22.0256 114.891 23.0706 116.74 23.0706C118.369 23.0706 119.941 22.245 121.376 20.6763L121.43 11.4527L119.139 11.1225V10.3253L123.002 9.99501L123.305 10.3253L123.194 14.4559V23.1273L125.373 23.4292Z" fill="#AEACAB"/>
<path d="M142.231 23.4292V24.2264L137.818 24.4741L137.735 22.3533C136.577 23.8394 135.142 24.6108 133.321 24.6108C129.761 24.6108 127.307 21.6103 127.307 17.3429C127.307 12.7169 129.983 9.77313 133.652 9.77313C135.03 9.77313 136.44 10.3227 137.735 11.8371V4.01968L135.142 3.88294V3.05734L139.198 2.12079L139.612 2.34009L139.529 6.52488V23.1815L142.231 23.4292ZM137.707 12.8588C136.328 11.5379 135.167 11.0141 133.926 11.0141C131.387 11.0141 129.265 12.8872 129.265 17.2913C129.265 21.4219 131.196 23.375 133.818 23.375C135.281 23.375 136.411 22.8513 137.709 21.3368V12.8588H137.707Z" fill="#AEACAB"/>
<path d="M150.068 23.4292V24.2264H143.501V23.4292L145.957 23.1273C145.986 21.6128 146.011 19.4121 146.011 17.9802V16.4657C146.011 14.7319 145.983 13.4651 145.929 12.0048L143.364 11.8113V11.0141L147.503 9.82989L147.863 10.1059L147.808 13.8779V17.9802C147.808 19.4121 147.837 21.6154 147.863 23.1273L150.068 23.4292ZM145.238 4.34992C145.238 3.41337 145.929 2.83545 146.785 2.83545C147.64 2.83545 148.357 3.41337 148.357 4.34992C148.357 5.23229 147.64 5.83601 146.785 5.83601C145.929 5.83601 145.238 5.23229 145.238 4.34992Z" fill="#AEACAB"/>
<path d="M152.137 17.2346C152.137 12.2525 155.475 9.77313 158.813 9.77313C162.151 9.77313 165.517 12.25 165.517 17.2346C165.517 22.245 162.151 24.6134 158.813 24.6134C155.446 24.6134 152.137 22.245 152.137 17.2346ZM163.477 17.2346C163.477 13.1323 161.683 10.7381 158.815 10.7381C155.919 10.7381 154.179 13.1323 154.179 17.2346C154.179 21.3626 155.917 23.6201 158.815 23.6201C161.683 23.6227 163.477 21.3652 163.477 17.2346Z" fill="#AEACAB"/>
</g>
<defs>
<clipPath id="clip0_50_323">
<rect width="165.517" height="32" fill="white"/>
</clipPath>
</defs>
</svg>
