<svg width="46" height="16" viewBox="0 0 46 16" fill="none" xmlns="http://www.w3.org/2000/svg">
<path d="M0.517242 8C0.517242 3.85786 3.87511 0.5 8.01724 0.5H37.5627C41.7048 0.5 45.0627 3.85786 45.0627 8V8C45.0627 12.1421 41.7048 15.5 37.5627 15.5H8.01724C3.87511 15.5 0.517242 12.1421 0.517242 8V8Z" fill="#B14C59"/>
<path d="M12.9148 11.8219C12.903 10.6283 12.903 9.411 12.903 8.0401H13.6121C15.3257 8.0401 16.0821 8.67828 16.0821 9.94282C16.0821 11.1719 15.2666 11.8219 13.7421 11.8219H12.9148ZM13.7421 4.09282C15.0894 4.09282 15.7039 4.61282 15.7039 5.74737C15.7039 6.95282 15.0185 7.55555 13.5412 7.55555H12.903C12.903 6.37373 12.903 5.22737 12.9148 4.09282H13.7421ZM10.3503 3.60828V4.03373L11.5203 4.16373C11.5439 5.31009 11.5439 6.46828 11.5439 7.62646V8.20555C11.5439 9.411 11.5439 10.5928 11.5203 11.7628L10.3503 11.8928V12.3183H13.9312C16.5785 12.3183 17.5003 11.1128 17.5003 9.931C17.5003 8.8201 16.7321 7.96919 14.8648 7.74464C16.4485 7.43737 17.0276 6.6101 17.0276 5.7001C17.0276 4.48282 16.0939 3.60828 14.1439 3.60828H10.3503Z" fill="white"/>
<path d="M19.9028 8.70191C19.9973 7.08282 20.7655 6.38555 21.5337 6.38555C22.3373 6.38555 22.8928 7.05919 22.8928 7.93373C22.8928 8.4301 22.7628 8.70191 22.2192 8.70191H19.9028ZM24.0273 9.16282C24.0864 8.97373 24.1101 8.73737 24.1101 8.44191C24.1101 6.941 23.1173 5.92464 21.6164 5.92464C20.0092 5.92464 18.5437 7.17737 18.5437 9.22191C18.5437 11.3019 19.8082 12.4956 21.5928 12.4956C22.7392 12.4956 23.6019 11.9283 24.0746 10.9946L23.8382 10.8292C23.3892 11.3965 22.8692 11.7392 22.0301 11.7392C20.8128 11.7392 19.9264 10.9237 19.891 9.16282H24.0273Z" fill="white"/>
<path d="M28.7836 11.491C28.4527 11.7392 28.2163 11.8574 27.9209 11.8574C27.4481 11.8574 27.1527 11.5737 27.1527 10.9001V6.63373H28.8309V6.10191H27.1645L27.2236 4.27009H26.3727L25.9709 6.07828L24.8245 6.20828V6.63373H25.9V9.75373C25.9 10.2383 25.8881 10.5455 25.8881 10.9001C25.8881 11.9874 26.4436 12.4956 27.4363 12.4956C28.1572 12.4956 28.6891 12.2237 29.02 11.751L28.7836 11.491Z" fill="white"/>
<path d="M33.2756 11.0301C32.6138 11.5619 32.3183 11.7274 31.8929 11.7274C31.302 11.7274 30.8883 11.4201 30.8883 10.7228C30.8883 10.1319 31.1602 9.61191 32.2002 9.19828C32.4483 9.10373 32.8502 8.97373 33.2756 8.85555V11.0301ZM35.5093 11.5383C35.3083 11.7746 35.1783 11.8692 34.9656 11.8692C34.6938 11.8692 34.5165 11.6801 34.5165 11.0892V8.18191C34.5165 6.56282 33.8665 5.92464 32.4247 5.92464C30.9711 5.92464 30.0138 6.551 29.8129 7.56737C29.8602 7.9101 30.0847 8.08737 30.4393 8.08737C30.8056 8.08737 31.0538 7.851 31.1483 7.35464L31.3493 6.4801C31.6093 6.40919 31.8338 6.38555 32.0465 6.38555C32.9329 6.38555 33.2756 6.72828 33.2756 7.99282V8.47737C32.7793 8.59555 32.2593 8.74919 31.8574 8.86737C30.132 9.45828 29.6356 10.0374 29.6356 10.9119C29.6356 11.9283 30.3683 12.4956 31.3374 12.4956C32.1647 12.4956 32.6256 12.141 33.3111 11.4437C33.4293 12.0819 33.8547 12.4719 34.5165 12.4719C35.0483 12.4719 35.4265 12.2828 35.7102 11.751L35.5093 11.5383Z" fill="white"/>
</svg>
