<svg width="52" height="52" viewBox="0 0 52 52" fill="none" xmlns="http://www.w3.org/2000/svg">
<path fill-rule="evenodd" clip-rule="evenodd" d="M25.5912 0C27.0046 0 28.1503 1.14576 28.1503 2.55912V23.0321H48.6233C50.0367 23.0321 51.1824 24.1779 51.1824 25.5912C51.1824 27.0046 50.0367 28.1503 48.6233 28.1503H28.1503V48.6233C28.1503 50.0367 27.0046 51.1824 25.5912 51.1824C24.1779 51.1824 23.0321 50.0367 23.0321 48.6233V28.1503H2.55912C1.14576 28.1503 0 27.0046 0 25.5912C0 24.1779 1.14576 23.0321 2.55912 23.0321H23.0321V2.55912C23.0321 1.14576 24.1779 0 25.5912 0Z" fill="#979797"/>
</svg>
