<svg width="46" height="16" viewBox="0 0 46 16" fill="none" xmlns="http://www.w3.org/2000/svg">
<path d="M0.517242 8C0.517242 3.85786 3.87511 0.5 8.01724 0.5H37.5627C41.7048 0.5 45.0627 3.85786 45.0627 8C45.0627 12.1421 41.7048 15.5 37.5627 15.5H8.01724C3.87511 15.5 0.517242 12.1421 0.517242 8Z" fill="#B14C59"/>
<path d="M12.9148 11.8219C12.903 10.6282 12.903 9.41094 12.903 8.04003H13.6121C15.3257 8.04003 16.0821 8.67822 16.0821 9.94276C16.0821 11.1719 15.2666 11.8219 13.7421 11.8219H12.9148ZM13.7421 4.09276C15.0894 4.09276 15.7039 4.61276 15.7039 5.74731C15.7039 6.95276 15.0185 7.55549 13.5412 7.55549H12.903C12.903 6.37367 12.903 5.22731 12.9148 4.09276H13.7421ZM10.3503 3.60822V4.03367L11.5203 4.16367C11.5439 5.31003 11.5439 6.46822 11.5439 7.6264V8.20549C11.5439 9.41094 11.5439 10.5928 11.5203 11.7628L10.3503 11.8928V12.3182H13.9312C16.5785 12.3182 17.5003 11.1128 17.5003 9.93094C17.5003 8.82003 16.7321 7.96913 14.8648 7.74458C16.4485 7.43731 17.0276 6.61003 17.0276 5.70003C17.0276 4.48276 16.0939 3.60822 14.1439 3.60822H10.3503Z" fill="white"/>
<path d="M19.9028 8.70185C19.9973 7.08276 20.7655 6.38549 21.5337 6.38549C22.3373 6.38549 22.8928 7.05913 22.8928 7.93367C22.8928 8.43003 22.7628 8.70185 22.2192 8.70185H19.9028ZM24.0273 9.16276C24.0864 8.97367 24.1101 8.73731 24.1101 8.44185C24.1101 6.94094 23.1173 5.92458 21.6164 5.92458C20.0092 5.92458 18.5437 7.17731 18.5437 9.22185C18.5437 11.3019 19.8082 12.4955 21.5928 12.4955C22.7392 12.4955 23.6019 11.9282 24.0746 10.9946L23.8382 10.8291C23.3892 11.3964 22.8692 11.7391 22.0301 11.7391C20.8128 11.7391 19.9264 10.9237 19.891 9.16276H24.0273Z" fill="white"/>
<path d="M28.7836 11.4909C28.4527 11.7391 28.2163 11.8573 27.9209 11.8573C27.4481 11.8573 27.1527 11.5737 27.1527 10.9V6.63367H28.8309V6.10185H27.1645L27.2236 4.27003H26.3727L25.9709 6.07822L24.8245 6.20822V6.63367H25.9V9.75367C25.9 10.2382 25.8881 10.5455 25.8881 10.9C25.8881 11.9873 26.4436 12.4955 27.4363 12.4955C28.1572 12.4955 28.6891 12.2237 29.02 11.7509L28.7836 11.4909Z" fill="white"/>
<path d="M33.2756 11.03C32.6138 11.5619 32.3183 11.7273 31.8929 11.7273C31.302 11.7273 30.8883 11.42 30.8883 10.7228C30.8883 10.1319 31.1602 9.61185 32.2002 9.19822C32.4483 9.10367 32.8502 8.97367 33.2756 8.85549V11.03ZM35.5093 11.5382C35.3083 11.7746 35.1783 11.8691 34.9656 11.8691C34.6938 11.8691 34.5165 11.68 34.5165 11.0891V8.18185C34.5165 6.56276 33.8665 5.92458 32.4247 5.92458C30.9711 5.92458 30.0138 6.55094 29.8129 7.56731C29.8602 7.91003 30.0847 8.08731 30.4393 8.08731C30.8056 8.08731 31.0538 7.85094 31.1483 7.35458L31.3493 6.48003C31.6093 6.40913 31.8338 6.38549 32.0465 6.38549C32.9329 6.38549 33.2756 6.72822 33.2756 7.99276V8.47731C32.7793 8.59549 32.2593 8.74913 31.8574 8.86731C30.132 9.45822 29.6356 10.0373 29.6356 10.9119C29.6356 11.9282 30.3683 12.4955 31.3374 12.4955C32.1647 12.4955 32.6256 12.1409 33.3111 11.4437C33.4293 12.0819 33.8547 12.4719 34.5165 12.4719C35.0483 12.4719 35.4265 12.2828 35.7102 11.7509L35.5093 11.5382Z" fill="white"/>
</svg>
