<svg width="85" height="32" viewBox="0 0 85 32" fill="none" xmlns="http://www.w3.org/2000/svg">
<g clip-path="url(#clip0_4_141)">
<path d="M28.371 14.4434L30.3936 14.3664L31.2325 13.901C31.7073 13.8849 32.2926 13.8978 32.7804 13.9363C32.3284 10.4667 30.748 7.34371 28.4165 4.9397L28.371 6.02455V14.4434Z" fill="#B14C59"/>
<path d="M26.9793 18.5645C23.2527 19.7809 18.2125 20.6636 14.7461 20.9236C14.4566 20.9492 14.1965 20.9492 13.9591 20.9492C13.2502 20.9492 12.7787 20.5352 12.5413 19.8612C12.4633 19.6526 12.4373 19.2642 12.4373 18.7731V9.85677C11.9658 9.54544 11.1756 9.25978 10.4179 9.10572L10.522 8.56329C10.548 8.46058 10.6 8.43491 10.7594 8.43491C11.5723 8.43491 12.9641 8.51194 13.5689 8.64353C13.8063 8.69489 13.9103 8.82327 13.9103 9.08325L13.8811 10.2708V19.2353C13.8811 19.5466 13.9851 19.675 14.3266 19.675C17.6596 19.598 23.3828 18.8213 26.9793 17.7589V5.55587C26.4817 5.03591 25.6395 4.59619 24.6965 4.31053L24.8526 3.79057C24.8786 3.71354 24.9306 3.68786 25.116 3.68786C25.7631 3.70712 26.7939 3.89649 27.5483 4.10191C24.6737 1.55346 20.8757 0 16.7101 0C7.75797 0 0.5 7.16389 0.5 16C0.5 24.8361 7.75797 32 16.7101 32C20.6415 32 24.2445 30.6199 27.0508 28.3218C27.0053 27.1503 26.9793 25.1892 26.9793 24.1364V18.5645Z" fill="#B14C59"/>
<path d="M28.371 23.5909C28.371 24.6661 28.2669 26.1425 28.0913 27.3911C31.0732 24.4896 32.9202 20.4583 32.9202 16.0001C32.9202 15.7401 32.9137 15.4802 32.9007 15.2234L28.371 15.2715V23.5909Z" fill="#B14C59"/>
<path d="M51.8683 3.79387C51.8944 3.71684 51.9464 3.69116 52.1317 3.69116C52.9707 3.71684 54.4665 4.02817 55.1494 4.28815C55.3608 4.36518 55.4388 4.52246 55.4388 4.75355L55.3868 6.02135V23.5909C55.3868 25.0159 55.2014 27.1407 54.9153 28.5144H54.0763C54.0243 27.375 53.9983 25.2502 53.9983 24.1365V18.7443C49.9303 20.0153 44.4705 20.9461 40.6887 21.1804C40.3993 21.2061 40.1392 21.2061 39.9018 21.2061C39.1669 21.2061 38.6954 20.7921 38.458 20.0924C38.38 19.8837 38.3539 19.4954 38.3539 19.0043V9.7028C37.9345 9.39146 37.2776 9.13148 36.5947 9.02877L36.6988 8.5377C36.7248 8.46067 36.8028 8.40932 36.9622 8.40932C37.6451 8.40932 39.1929 8.51202 39.8498 8.64362C41.4496 8.61794 44.89 8.51203 45.755 8.43499L46.4379 8.07231C47.0427 8.07231 48.0377 8.12366 48.5385 8.22958C48.7206 8.25525 48.8019 8.35796 48.8019 8.51523C48.8019 8.82657 48.7239 9.08655 48.6166 9.18926C48.5385 9.26629 48.4312 9.31764 48.3011 9.31764L39.8237 9.55194V19.5018C39.8237 19.7875 39.9278 19.9158 40.2692 19.9158C43.8917 19.8645 50.0864 19.0621 53.9983 17.9194V5.55596C53.5007 5.03921 52.6585 4.59628 51.7155 4.31062L51.8683 3.79387Z" fill="#B2B1B0"/>
<path d="M81.4011 22.4223C82.3214 22.448 83.6058 22.5796 84.1846 22.7594C84.37 22.8107 84.5001 22.9391 84.5001 23.122C84.5001 23.4847 84.2367 23.7961 84.0285 23.8988C83.3197 23.8217 81.8759 23.7704 81.115 23.7704C79.2777 23.7447 66.7811 23.8988 65.4706 23.979C64.8138 24.0304 63.5814 24.2647 62.9765 24.4701C62.0595 24.2101 61.1653 23.7704 60.5605 23.305C60.4824 23.2536 60.4564 23.2023 60.4824 23.122L60.6385 22.785C61.4514 22.9391 62.6091 23.045 63.37 23.045C64.1309 23.045 67.9648 23.0193 71.8214 22.968V17.4474C68.381 17.242 65.8609 15.0145 65.8609 11.9301C65.8609 8.6402 68.6704 6.35815 72.3969 6.35815C76.1235 6.35815 78.933 8.63699 78.933 11.9301C78.933 14.96 76.5169 17.1393 73.2099 17.4474V22.9391C76.595 22.8877 79.746 22.8364 80.5329 22.785L81.4011 22.4223ZM72.3969 16.4653C75.1805 16.4653 77.4112 14.7545 77.4112 11.9301C77.4112 9.07992 75.1805 7.36919 72.3969 7.36919C69.6134 7.36919 67.3827 9.07992 67.3827 11.9301C67.3827 14.7545 69.6134 16.4653 72.3969 16.4653Z" fill="#B2B1B0"/>
</g>
<defs>
<clipPath id="clip0_4_141">
<rect width="84" height="32" fill="white" transform="translate(0.5)"/>
</clipPath>
</defs>
</svg>
