<svg width="33" height="33" viewBox="0 0 33 33" fill="none" xmlns="http://www.w3.org/2000/svg">
<circle cx="16.5" cy="16.5" r="16.5" fill="#B14C59"/>
<path d="M20.0415 9.41654C20.9801 9.41934 21.8793 9.79341 22.543 10.457C23.2066 11.1207 23.5807 12.0199 23.5835 12.9585V20.0415C23.5807 20.9801 23.2066 21.8793 22.543 22.543C21.8793 23.2066 20.9801 23.5807 20.0415 23.5835H12.9585C12.0199 23.5807 11.1207 23.2066 10.457 22.543C9.79341 21.8793 9.41934 20.9801 9.41654 20.0415V12.9585C9.41934 12.0199 9.79341 11.1207 10.457 10.457C11.1207 9.79341 12.0199 9.41934 12.9585 9.41654H20.0415ZM20.0415 8H12.9585C10.2312 8 8 10.2312 8 12.9585V20.0415C8 22.7688 10.2312 25 12.9585 25H20.0415C22.7688 25 25 22.7688 25 20.0415V12.9585C25 10.2312 22.7688 8 20.0415 8Z" fill="white"/>
<path d="M21.104 12.959C20.8939 12.959 20.6885 12.8967 20.5137 12.7799C20.339 12.6632 20.2028 12.4972 20.1224 12.3031C20.042 12.1089 20.021 11.8953 20.062 11.6892C20.103 11.4831 20.2041 11.2938 20.3527 11.1452C20.5013 10.9966 20.6907 10.8954 20.8968 10.8544C21.1029 10.8134 21.3165 10.8344 21.5106 10.9149C21.7048 10.9953 21.8707 11.1315 21.9875 11.3062C22.1042 11.4809 22.1665 11.6863 22.1665 11.8965C22.1668 12.0361 22.1396 12.1744 22.0863 12.3034C22.033 12.4325 21.9547 12.5497 21.856 12.6485C21.7573 12.7472 21.64 12.8254 21.511 12.8787C21.382 12.932 21.2437 12.9593 21.104 12.959ZM16.5 13.6671C17.0604 13.6671 17.6082 13.8332 18.0742 14.1446C18.5401 14.4559 18.9033 14.8985 19.1178 15.4162C19.3322 15.934 19.3883 16.5037 19.279 17.0533C19.1697 17.6029 18.8998 18.1078 18.5036 18.5041C18.1073 18.9003 17.6024 19.1702 17.0528 19.2795C16.5031 19.3889 15.9334 19.3328 15.4157 19.1183C14.8979 18.9038 14.4554 18.5407 14.1441 18.0747C13.8327 17.6088 13.6665 17.0609 13.6665 16.5005C13.6673 15.7493 13.9661 15.0291 14.4973 14.4979C15.0285 13.9667 15.7488 13.6679 16.5 13.6671ZM16.5 12.2505C15.6594 12.2505 14.8377 12.4998 14.1388 12.9668C13.4399 13.4338 12.8952 14.0975 12.5735 14.8741C12.2518 15.6507 12.1677 16.5052 12.3317 17.3297C12.4957 18.1541 12.9004 18.9114 13.4948 19.5057C14.0892 20.1001 14.8464 20.5049 15.6709 20.6689C16.4953 20.8329 17.3498 20.7487 18.1264 20.427C18.903 20.1053 19.5668 19.5606 20.0337 18.8617C20.5007 18.1628 20.75 17.3411 20.75 16.5005C20.75 15.3734 20.3022 14.2924 19.5052 13.4953C18.7082 12.6983 17.6272 12.2505 16.5 12.2505Z" fill="white"/>
</svg>
