<svg width="32" height="28" viewBox="0 0 32 28" fill="none" xmlns="http://www.w3.org/2000/svg">
<path d="M16.6668 27.195C16.2404 27.1948 15.8254 27.0578 15.4826 26.8042L15.4276 26.7617L7.80588 20.5117H2.00001C1.46958 20.5117 0.960865 20.301 0.58579 19.9259C0.210715 19.5508 0 19.0421 0 18.5117V9.1791C0 8.64866 0.210715 8.13995 0.58579 7.76488C0.960865 7.3898 1.46958 7.17909 2.00001 7.17909H7.80422L15.4259 0.929047L15.4809 0.886546C15.7789 0.667153 16.1319 0.534722 16.5006 0.503984C16.8694 0.473246 17.2394 0.545407 17.5696 0.712439C17.8998 0.879472 18.1771 1.13483 18.3708 1.4501C18.5646 1.76537 18.667 2.1282 18.6668 2.49822V25.1934C18.6668 25.7238 18.4561 26.2325 18.081 26.6076C17.7059 26.9827 17.1972 27.1934 16.6668 27.1934V27.195ZM24.0002 20.5125C23.7727 20.5124 23.5491 20.4541 23.3506 20.3432C23.1521 20.2323 22.9852 20.0724 22.8659 19.8789C22.7465 19.6853 22.6787 19.4644 22.6688 19.2372C22.6589 19.01 22.7073 18.7841 22.8093 18.5808C23.6001 17.0058 24.001 15.4141 24.001 13.8458C24.001 12.2325 23.6126 10.6858 22.8135 9.11827C22.6604 8.80417 22.6367 8.44252 22.7475 8.11114C22.8583 7.77975 23.0948 7.50511 23.4061 7.34632C23.7173 7.18752 24.0785 7.15726 24.4118 7.26204C24.7452 7.36682 25.0241 7.59827 25.1885 7.90659C26.1835 9.8591 26.6668 11.8016 26.6668 13.8458C26.6668 15.8316 26.1668 17.8275 25.1918 19.7775C25.0809 19.9985 24.9107 20.1842 24.7002 20.314C24.4898 20.4438 24.2474 20.5125 24.0002 20.5125Z" fill="#B14C59"/>
<path d="M28 24.5126C27.7659 24.5128 27.5358 24.4513 27.3329 24.3344C27.1301 24.2175 26.9616 24.0492 26.8444 23.8464C26.7273 23.6437 26.6656 23.4137 26.6655 23.1795C26.6655 22.9454 26.7271 22.7154 26.8442 22.5126C28.4167 19.7667 29.3333 17.4667 29.3333 13.8459C29.3333 10.1692 28.4217 7.88584 26.8475 5.18332C26.685 4.8786 26.6471 4.52273 26.7417 4.19062C26.8364 3.85851 27.0562 3.57607 27.3549 3.40275C27.6535 3.22943 28.0078 3.17876 28.3431 3.2614C28.6784 3.34404 28.9686 3.55354 29.1525 3.84581C30.91 6.85916 32 9.58585 32 13.8459C32 18.0426 30.9117 20.7826 29.1567 23.8459C29.0395 24.0489 28.8709 24.2174 28.6678 24.3345C28.4647 24.4515 28.2344 24.513 28 24.5126Z" fill="#B14C59"/>
</svg>
