<svg width="46" height="16" viewBox="0 0 46 16" fill="none" xmlns="http://www.w3.org/2000/svg">
<path d="M0.517212 8C0.517212 3.85786 3.87508 0.5 8.01721 0.5H37.5627C41.7048 0.5 45.0627 3.85786 45.0627 8C45.0627 12.1421 41.7048 15.5 37.5627 15.5H8.01721C3.87508 15.5 0.517212 12.1421 0.517212 8Z" fill="#B14C59"/>
<path d="M12.9148 11.8219C12.9029 10.6283 12.9029 9.411 12.9029 8.0401H13.612C15.3257 8.0401 16.082 8.67828 16.082 9.94282C16.082 11.1719 15.2666 11.8219 13.742 11.8219H12.9148ZM13.742 4.09282C15.0893 4.09282 15.7039 4.61282 15.7039 5.74737C15.7039 6.95282 15.0184 7.55555 13.5411 7.55555H12.9029C12.9029 6.37373 12.9029 5.22737 12.9148 4.09282H13.742ZM10.3502 3.60828V4.03373L11.5202 4.16373C11.5439 5.31009 11.5439 6.46828 11.5439 7.62646V8.20555C11.5439 9.411 11.5439 10.5928 11.5202 11.7628L10.3502 11.8928V12.3183H13.9311C16.5784 12.3183 17.5002 11.1128 17.5002 9.931C17.5002 8.8201 16.732 7.96919 14.8648 7.74464C16.4484 7.43737 17.0275 6.6101 17.0275 5.7001C17.0275 4.48282 16.0939 3.60828 14.1439 3.60828H10.3502Z" fill="white"/>
<path d="M19.9027 8.70191C19.9973 7.08282 20.7655 6.38555 21.5336 6.38555C22.3373 6.38555 22.8927 7.05919 22.8927 7.93373C22.8927 8.4301 22.7627 8.70191 22.2191 8.70191H19.9027ZM24.0273 9.16282C24.0864 8.97373 24.11 8.73737 24.11 8.44191C24.11 6.941 23.1173 5.92464 21.6164 5.92464C20.0091 5.92464 18.5436 7.17737 18.5436 9.22191C18.5436 11.3019 19.8082 12.4956 21.5927 12.4956C22.7391 12.4956 23.6018 11.9283 24.0745 10.9946L23.8382 10.8292C23.3891 11.3965 22.8691 11.7392 22.03 11.7392C20.8127 11.7392 19.9264 10.9237 19.8909 9.16282H24.0273Z" fill="white"/>
<path d="M28.7835 11.491C28.4526 11.7392 28.2163 11.8574 27.9208 11.8574C27.4481 11.8574 27.1526 11.5737 27.1526 10.9001V6.63373H28.8308V6.10191H27.1644L27.2235 4.27009H26.3726L25.9708 6.07828L24.8244 6.20828V6.63373H25.8999V9.75373C25.8999 10.2383 25.8881 10.5455 25.8881 10.9001C25.8881 11.9874 26.4435 12.4956 27.4363 12.4956C28.1572 12.4956 28.689 12.2237 29.0199 11.751L28.7835 11.491Z" fill="white"/>
<path d="M33.2756 11.0301C32.6137 11.5619 32.3183 11.7274 31.8928 11.7274C31.3019 11.7274 30.8883 11.4201 30.8883 10.7228C30.8883 10.1319 31.1601 9.61191 32.2001 9.19828C32.4483 9.10373 32.8501 8.97373 33.2756 8.85555V11.0301ZM35.5092 11.5383C35.3083 11.7746 35.1783 11.8692 34.9656 11.8692C34.6937 11.8692 34.5165 11.6801 34.5165 11.0892V8.18191C34.5165 6.56282 33.8665 5.92464 32.4246 5.92464C30.971 5.92464 30.0137 6.551 29.8128 7.56737C29.8601 7.9101 30.0846 8.08737 30.4392 8.08737C30.8056 8.08737 31.0537 7.851 31.1483 7.35464L31.3492 6.4801C31.6092 6.40919 31.8337 6.38555 32.0465 6.38555C32.9328 6.38555 33.2756 6.72828 33.2756 7.99282V8.47737C32.7792 8.59555 32.2592 8.74919 31.8574 8.86737C30.1319 9.45828 29.6356 10.0374 29.6356 10.9119C29.6356 11.9283 30.3683 12.4956 31.3374 12.4956C32.1646 12.4956 32.6256 12.141 33.311 11.4437C33.4292 12.0819 33.8546 12.4719 34.5165 12.4719C35.0483 12.4719 35.4265 12.2828 35.7101 11.751L35.5092 11.5383Z" fill="white"/>
</svg>
