<svg width="404" height="184" viewBox="0 0 404 184" fill="none" xmlns="http://www.w3.org/2000/svg">
<path d="M325.755 170.508C325.755 163.232 331.653 157.334 338.929 157.334H390.826C398.102 157.334 404 163.232 404 170.508V170.508C404 177.784 398.102 183.682 390.826 183.682H338.929C331.653 183.682 325.755 177.784 325.755 170.508V170.508Z" fill="#B14C59"/>
<path d="M347.532 177.221C347.511 175.124 347.511 172.986 347.511 170.578H348.756C351.766 170.578 353.095 171.699 353.095 173.92C353.095 176.079 351.663 177.221 348.985 177.221H347.532ZM348.985 163.645C351.351 163.645 352.431 164.558 352.431 166.551C352.431 168.668 351.227 169.727 348.632 169.727H347.511C347.511 167.651 347.511 165.638 347.532 163.645H348.985ZM343.027 162.794V163.541L345.082 163.769C345.124 165.783 345.124 167.817 345.124 169.852V170.869C345.124 172.986 345.124 175.062 345.082 177.117L343.027 177.346V178.093H349.317C353.967 178.093 355.586 175.976 355.586 173.9C355.586 171.948 354.237 170.454 350.957 170.059C353.739 169.52 354.756 168.066 354.756 166.468C354.756 164.33 353.116 162.794 349.691 162.794H343.027Z" fill="white"/>
<path d="M359.806 171.741C359.972 168.897 361.322 167.672 362.671 167.672C364.082 167.672 365.058 168.855 365.058 170.391C365.058 171.263 364.83 171.741 363.875 171.741H359.806ZM367.051 172.55C367.155 172.218 367.196 171.803 367.196 171.284C367.196 168.648 365.453 166.862 362.816 166.862C359.993 166.862 357.419 169.063 357.419 172.654C357.419 176.308 359.64 178.404 362.775 178.404C364.788 178.404 366.304 177.408 367.134 175.768L366.719 175.477C365.93 176.474 365.017 177.076 363.543 177.076C361.405 177.076 359.848 175.643 359.785 172.55H367.051Z" fill="white"/>
<path d="M375.405 176.64C374.824 177.076 374.409 177.283 373.89 177.283C373.06 177.283 372.541 176.785 372.541 175.602V168.108H375.488V167.174H372.561L372.665 163.956H371.171L370.465 167.132L368.451 167.361V168.108H370.34V173.588C370.34 174.439 370.32 174.979 370.32 175.602C370.32 177.512 371.295 178.404 373.039 178.404C374.305 178.404 375.239 177.927 375.821 177.097L375.405 176.64Z" fill="white"/>
<path d="M383.296 175.83C382.133 176.764 381.614 177.055 380.867 177.055C379.829 177.055 379.102 176.515 379.102 175.291C379.102 174.253 379.58 173.339 381.407 172.613C381.843 172.447 382.548 172.218 383.296 172.011V175.83ZM387.219 176.723C386.866 177.138 386.638 177.304 386.264 177.304C385.787 177.304 385.475 176.972 385.475 175.934V170.827C385.475 167.983 384.334 166.862 381.801 166.862C379.248 166.862 377.566 167.963 377.213 169.748C377.296 170.35 377.691 170.661 378.314 170.661C378.957 170.661 379.393 170.246 379.559 169.374L379.912 167.838C380.369 167.714 380.763 167.672 381.137 167.672C382.694 167.672 383.296 168.274 383.296 170.495V171.346C382.424 171.554 381.51 171.824 380.805 172.031C377.774 173.069 376.902 174.087 376.902 175.623C376.902 177.408 378.189 178.404 379.891 178.404C381.344 178.404 382.154 177.782 383.358 176.557C383.566 177.678 384.313 178.363 385.475 178.363C386.41 178.363 387.074 178.031 387.572 177.097L387.219 176.723Z" fill="white"/>
<path d="M85.1274 44.741L91.2992 44.5015L93.8621 43.0564C95.3073 43.0085 97.1037 43.0484 98.5968 43.1681C97.2155 32.4294 92.3931 22.7685 85.2632 15.3273L85.1274 18.6806V44.741Z" fill="#B14C59"/>
<path d="M80.8798 57.4918C69.4944 61.2603 54.1009 63.9829 43.5138 64.7893C42.6356 64.8692 41.8292 64.8692 41.1106 64.8692C38.9469 64.8692 37.5017 63.5837 36.7832 61.4998C36.5436 60.8611 36.4638 59.6555 36.4638 58.1305V30.5531C35.0187 29.587 32.6154 28.7088 30.292 28.2297L30.6114 26.5451C30.6912 26.2257 30.8509 26.1458 31.33 26.1458C33.813 26.1458 38.0686 26.3854 39.913 26.7846C40.6315 26.9443 40.9589 27.3435 40.9589 28.1499L40.8791 31.8386V59.5836C40.8791 60.5417 41.1984 60.9489 42.2443 60.9489C52.4242 60.7094 69.9096 58.2982 80.8958 55.0167V17.2515C79.3708 15.6466 76.8079 14.2813 73.9176 13.4031L74.3967 11.7983C74.4765 11.5587 74.6362 11.4789 75.2031 11.4789C77.1752 11.5428 80.3289 12.1256 82.6284 12.7564C73.8458 4.85201 62.2368 0.0455322 49.51 0.0455322C22.1641 0.0455322 0 22.2096 0 49.5555C0 76.9013 22.1641 99.0655 49.51 99.0655C61.5182 99.0655 72.5204 94.7939 81.0954 87.68C80.9517 84.0472 80.8798 77.9872 80.8798 74.7217V57.4918Z" fill="#B14C59"/>
<path d="M85.1274 73.0451C85.1274 76.3745 84.8081 80.9414 84.2731 84.8058C93.3751 75.8236 99.0279 63.3523 99.0279 49.5556C99.0279 48.7492 99.004 47.9508 98.964 47.1523L85.1274 47.304V73.0451V73.0451Z" fill="#B14C59"/>
<path d="M156.905 11.7903C156.985 11.5508 157.145 11.4709 157.712 11.4709C160.275 11.5508 164.85 12.5169 166.933 13.3153C167.572 13.5548 167.812 14.0419 167.812 14.7604L167.652 18.6887V73.053C167.652 77.4603 167.093 84.0392 166.207 88.2868H163.644C163.484 84.7578 163.404 78.1868 163.404 74.7377V58.0507C150.973 61.9789 134.294 64.8692 122.749 65.5878C121.871 65.6676 121.064 65.6676 120.346 65.6676C118.102 65.6676 116.657 64.3822 115.938 62.2185C115.699 61.5797 115.619 60.3741 115.619 58.8491V30.0661C114.334 29.108 112.33 28.3016 110.246 27.9823L110.565 26.4573C110.645 26.2177 110.884 26.0581 111.363 26.0581C113.447 26.0581 118.182 26.3774 120.186 26.7846C125.08 26.7048 135.58 26.3854 138.23 26.1459L140.314 25.0201C142.158 25.0201 145.208 25.1798 146.725 25.4992C147.284 25.579 147.524 25.8984 147.524 26.3774C147.524 27.3435 147.284 28.1419 146.965 28.4613C146.725 28.7008 146.406 28.8605 145.999 28.8605L120.098 29.5871V60.3741C120.098 61.2524 120.418 61.6596 121.463 61.6596C132.53 61.4999 151.452 59.0168 163.396 55.4878V17.2435C161.871 15.6387 159.309 14.2814 156.418 13.3951L156.905 11.7903Z" fill="#AEACAB"/>
<path d="M247.111 69.4361C249.921 69.516 253.849 69.9152 255.614 70.4821C256.173 70.6417 256.572 71.0409 256.572 71.6078C256.572 72.7336 255.774 73.6917 255.127 74.0111C252.963 73.7715 248.556 73.6119 246.224 73.6119C240.612 73.532 202.447 74.0111 198.431 74.2506C196.427 74.4103 192.659 75.1289 190.814 75.7756C188.012 74.9772 185.281 73.6119 183.437 72.1667C183.197 72.007 183.117 71.8474 183.197 71.6078L183.676 70.5619C186.159 71.041 189.688 71.3683 192.012 71.3683C194.335 71.3683 206.04 71.2885 217.833 71.1288V54.0426C207.325 53.4039 199.629 46.5055 199.629 36.9644C199.629 26.7846 208.212 19.7266 219.597 19.7266C230.983 19.7266 239.566 26.7846 239.566 36.9644C239.566 46.3459 232.188 53.0845 222.088 54.0426V71.0409C232.436 70.8813 242.057 70.7216 244.46 70.5619L247.111 69.4361ZM219.613 51.0006C228.116 51.0006 234.927 45.7071 234.927 36.9724C234.927 28.1499 228.108 22.8564 219.613 22.8564C211.11 22.8564 204.299 28.1499 204.299 36.9724C204.299 45.7071 211.11 51.0006 219.613 51.0006Z" fill="#AEACAB"/>
<path d="M43.418 153.414C53.8134 157.159 57.7656 161.63 57.7656 168.592C57.7656 176.696 51.011 183.666 37.4938 183.666C31.1543 183.666 26.4756 182.317 20.9665 179.818L20.7589 168.177H24.5035L26.4756 178.365C29.4936 179.714 32.815 180.544 37.4938 180.544C47.1626 180.544 51.9451 176.177 51.9451 170.149C51.9451 164.847 49.0309 162.149 40.5118 159.027L35.3141 157.159C27.2101 154.244 21.9086 149.989 21.9086 142.5C21.9086 134.284 28.4557 128.048 40.2004 128.048C46.2285 128.048 50.3882 129.501 55.4821 132.519L55.1708 143.122H51.53L49.973 133.869C46.6436 132 43.426 131.17 39.9928 131.17C31.6733 131.17 27.7291 135.33 27.7291 140.839C27.7291 146.244 30.9547 148.839 38.5397 151.546L43.418 153.414Z" fill="#979797"/>
<path d="M96.2175 179.299C93.5188 182.109 89.6704 183.666 84.8879 183.666C76.784 183.666 73.0394 179.195 73.1432 170.157C73.1432 167.666 73.247 165.582 73.247 161.941V133.15H62.3326V130.132L73.4546 129.198L75.5304 113.293H80.0016L79.4826 129.509H94.9719V133.15H79.3788V170.261C79.3788 176.911 81.9737 179.826 86.6524 179.826C89.7742 179.826 91.9539 178.995 94.7644 177.335L96.2175 179.299Z" fill="#979797"/>
<path d="M157.752 179.402V182.205L143.715 183.035L143.404 172.225C137.999 179.083 131.244 183.658 123.132 183.658C113.36 183.658 108.058 178.356 108.162 162.971L108.577 133.869L99.4271 132.727V130.028L113.775 128.783L114.813 130.028L114.294 145.621V162.667C114.294 174.516 118.246 178.676 125.416 178.676C131.963 178.676 137.991 175.139 143.292 168.903L143.5 133.877L134.558 132.839V130.028L148.793 128.783L149.831 130.028L149.416 145.621V178.572L157.752 179.402Z" fill="#979797"/>
<path d="M221.473 179.402V182.205L205.154 183.139L204.946 175.139C200.267 180.959 194.551 183.658 188.004 183.658C174.806 183.658 165.552 172.432 165.552 156.528C165.552 138.859 175.74 128.048 189.353 128.048C194.655 128.048 200.164 130.332 205.05 136.16V104.974L195.277 104.662V101.852L209.729 99.0496L211.286 99.9837L210.974 115.577V178.668L221.473 179.402ZM204.842 139.274C199.956 134.284 195.485 132.104 190.287 132.104C180.411 132.104 172.203 139.378 172.203 156.424C172.203 171.913 179.684 179.498 189.561 179.498C195.381 179.498 199.956 177.422 204.842 171.706V139.274Z" fill="#979797"/>
<path d="M250.991 179.402V182.205H226.775V179.402L236.236 178.468C236.34 172.752 236.444 164.225 236.444 158.715V152.999C236.444 146.348 236.34 140.839 236.029 134.811L226.256 134.499V131.793L241.33 128.36L242.679 129.086L242.368 143.019V158.715C242.368 164.328 242.472 172.752 242.576 178.468L250.991 179.402ZM233.633 107.265C233.633 104.247 235.917 102.171 238.831 102.171C241.641 102.171 244.133 104.247 244.133 107.265C244.133 110.387 241.641 112.359 238.831 112.359C235.925 112.359 233.633 110.379 233.633 107.265Z" fill="#979797"/>
<path d="M259.207 155.913C259.207 137.206 271.574 128.056 284.157 128.056C296.629 128.056 309.108 137.206 309.108 155.913C309.108 174.827 296.74 183.666 284.157 183.666C271.47 183.658 259.207 174.724 259.207 155.913ZM302.345 156.009C302.345 140.312 295.279 131.17 284.157 131.17C273.035 131.17 265.969 140.32 265.969 156.009C265.969 171.698 273.035 180.536 284.157 180.536C295.271 180.544 302.345 171.706 302.345 156.009Z" fill="#979797"/>
</svg>
