<svg width="46" height="16" viewBox="0 0 46 16" fill="none" xmlns="http://www.w3.org/2000/svg">
<path d="M0.517578 8C0.517578 3.85786 3.87544 0.5 8.01758 0.5H37.563C41.7052 0.5 45.063 3.85786 45.063 8C45.063 12.1421 41.7052 15.5 37.563 15.5H8.01758C3.87544 15.5 0.517578 12.1421 0.517578 8Z" fill="#B14C59"/>
<path d="M12.9151 11.8219C12.9033 10.6283 12.9033 9.411 12.9033 8.0401H13.6124C15.326 8.0401 16.0824 8.67828 16.0824 9.94282C16.0824 11.1719 15.2669 11.8219 13.7424 11.8219H12.9151ZM13.7424 4.09282C15.0897 4.09282 15.7042 4.61282 15.7042 5.74737C15.7042 6.95282 15.0188 7.55555 13.5415 7.55555H12.9033C12.9033 6.37373 12.9033 5.22737 12.9151 4.09282H13.7424ZM10.3506 3.60828V4.03373L11.5206 4.16373C11.5442 5.31009 11.5442 6.46828 11.5442 7.62646V8.20555C11.5442 9.411 11.5442 10.5928 11.5206 11.7628L10.3506 11.8928V12.3183H13.9315C16.5788 12.3183 17.5006 11.1128 17.5006 9.931C17.5006 8.8201 16.7324 7.96919 14.8651 7.74464C16.4488 7.43737 17.0279 6.6101 17.0279 5.7001C17.0279 4.48282 16.0942 3.60828 14.1442 3.60828H10.3506Z" fill="white"/>
<path d="M19.9031 8.70191C19.9976 7.08282 20.7658 6.38555 21.534 6.38555C22.3376 6.38555 22.8931 7.05919 22.8931 7.93373C22.8931 8.4301 22.7631 8.70191 22.2195 8.70191H19.9031ZM24.0276 9.16282C24.0867 8.97373 24.1104 8.73737 24.1104 8.44191C24.1104 6.941 23.1176 5.92464 21.6167 5.92464C20.0095 5.92464 18.544 7.17737 18.544 9.22191C18.544 11.3019 19.8085 12.4956 21.5931 12.4956C22.7395 12.4956 23.6022 11.9283 24.0749 10.9946L23.8385 10.8292C23.3895 11.3965 22.8695 11.7392 22.0304 11.7392C20.8131 11.7392 19.9267 10.9237 19.8913 9.16282H24.0276Z" fill="white"/>
<path d="M28.7839 11.491C28.453 11.7392 28.2166 11.8574 27.9212 11.8574C27.4484 11.8574 27.153 11.5737 27.153 10.9001V6.63373H28.8312V6.10191H27.1648L27.2239 4.27009H26.373L25.9712 6.07828L24.8248 6.20828V6.63373H25.9003V9.75373C25.9003 10.2383 25.8884 10.5455 25.8884 10.9001C25.8884 11.9874 26.4439 12.4956 27.4366 12.4956C28.1575 12.4956 28.6894 12.2237 29.0203 11.751L28.7839 11.491Z" fill="white"/>
<path d="M33.2759 11.0301C32.6141 11.5619 32.3186 11.7274 31.8932 11.7274C31.3023 11.7274 30.8886 11.4201 30.8886 10.7228C30.8886 10.1319 31.1605 9.61191 32.2005 9.19828C32.4486 9.10373 32.8505 8.97373 33.2759 8.85555V11.0301ZM35.5096 11.5383C35.3086 11.7746 35.1786 11.8692 34.9659 11.8692C34.6941 11.8692 34.5168 11.6801 34.5168 11.0892V8.18191C34.5168 6.56282 33.8668 5.92464 32.425 5.92464C30.9714 5.92464 30.0141 6.551 29.8132 7.56737C29.8605 7.9101 30.085 8.08737 30.4396 8.08737C30.8059 8.08737 31.0541 7.851 31.1486 7.35464L31.3496 6.4801C31.6096 6.40919 31.8341 6.38555 32.0468 6.38555C32.9332 6.38555 33.2759 6.72828 33.2759 7.99282V8.47737C32.7796 8.59555 32.2596 8.74919 31.8577 8.86737C30.1323 9.45828 29.6359 10.0374 29.6359 10.9119C29.6359 11.9283 30.3686 12.4956 31.3377 12.4956C32.165 12.4956 32.6259 12.141 33.3114 11.4437C33.4296 12.0819 33.855 12.4719 34.5168 12.4719C35.0486 12.4719 35.4268 12.2828 35.7105 11.751L35.5096 11.5383Z" fill="white"/>
</svg>
