<svg width="30" height="30" viewBox="0 0 30 30" fill="none" xmlns="http://www.w3.org/2000/svg">
<circle cx="15" cy="15" r="15" fill="#B14C59"/>
<path d="M18.8182 13H18.2727V10.2727C18.2727 9.40475 17.9279 8.57232 17.3142 7.95856C16.7004 7.3448 15.868 7 15 7C14.132 7 13.2996 7.3448 12.6858 7.95856C12.0721 8.57232 11.7273 9.40475 11.7273 10.2727V13H11.1818C10.6034 13.0006 10.0488 13.2307 9.63974 13.6397C9.2307 14.0488 9.00063 14.6034 9 15.1818V21.1818C9.00063 21.7603 9.2307 22.3149 9.63974 22.7239C10.0488 23.1329 10.6034 23.363 11.1818 23.3636H18.8182C19.3966 23.363 19.9512 23.1329 20.3603 22.7239C20.7693 22.3149 20.9994 21.7603 21 21.1818V15.1818C20.9994 14.6034 20.7693 14.0488 20.3603 13.6397C19.9512 13.2307 19.3966 13.0006 18.8182 13ZM17.1818 13H12.8182V10.2727C12.8182 9.69407 13.0481 9.13912 13.4572 8.72995C13.8664 8.32078 14.4213 8.09091 15 8.09091C15.5787 8.09091 16.1336 8.32078 16.5428 8.72995C16.9519 9.13912 17.1818 9.69407 17.1818 10.2727V13Z" fill="white"/>
<circle cx="15" cy="17" r="2" fill="#B14C59"/>
<path d="M15 17V21" stroke="#B14C59" stroke-width="2" stroke-linecap="round" stroke-linejoin="round"/>
</svg>
