<svg width="216" height="32" viewBox="0 0 216 32" fill="none" xmlns="http://www.w3.org/2000/svg">
<g clip-path="url(#clip0_65_647)">
<path d="M27.5676 14.4429L29.5663 14.3655L30.3963 13.8985C30.8643 13.883 31.446 13.8959 31.9295 13.9346C31.4822 10.4645 29.9205 7.34269 27.6116 4.93811L27.5676 6.02172V14.4429Z" fill="#B14C59"/>
<path d="M26.1921 18.5632C22.5051 19.781 17.52 20.6608 14.0915 20.9214C13.8071 20.9472 13.546 20.9472 13.3133 20.9472C12.6126 20.9472 12.1446 20.5318 11.9119 19.8584C11.8343 19.652 11.8084 19.2624 11.8084 18.7697V9.85826C11.3404 9.54608 10.5622 9.26228 9.80977 9.10747L9.91319 8.56309C9.93905 8.45989 9.99076 8.43409 10.1459 8.43409C10.95 8.43409 12.3281 8.51149 12.9254 8.64049C13.1581 8.69209 13.2641 8.82109 13.2641 9.08167L13.2383 10.2736V19.2392C13.2383 19.5488 13.3417 19.6804 13.6804 19.6804C16.9771 19.603 22.6395 18.8238 26.1973 17.7634V5.55995C25.7035 5.04136 24.8735 4.60018 23.9375 4.31638L24.0926 3.79779C24.1185 3.72039 24.1702 3.69459 24.3538 3.69459C24.9924 3.71523 26.0137 3.90357 26.7584 4.10739C23.9142 1.55317 20.1548 0 16.0333 0C7.17763 0 0 7.16214 0 15.9987C0 24.8353 7.17763 31.9974 16.0333 31.9974C19.9221 31.9974 23.485 30.6171 26.2619 28.3183C26.2154 27.1444 26.1921 25.1862 26.1921 24.1309V18.5632Z" fill="#B14C59"/>
<path d="M27.5677 23.5892C27.5677 24.665 27.4643 26.1408 27.291 27.3895C30.2386 24.487 32.0692 20.457 32.0692 15.9988C32.0692 15.7382 32.0614 15.4802 32.0485 15.2222L27.5677 15.2712V23.5892Z" fill="#B14C59"/>
<path d="M50.8122 3.79522C50.838 3.71782 50.8897 3.69202 51.0733 3.69202C51.9033 3.71782 53.3848 4.03 54.0597 4.288C54.2665 4.3654 54.3441 4.52278 54.3441 4.75499L54.2924 6.02436V23.5917C54.2924 25.0159 54.1114 27.1418 53.8244 28.5144H52.9944C52.9427 27.374 52.9168 25.2507 52.9168 24.1361V18.7439C48.8911 20.0132 43.4897 20.9472 39.751 21.1794C39.4665 21.2052 39.2054 21.2052 38.9727 21.2052C38.2461 21.2052 37.7781 20.7898 37.5454 20.0906C37.4679 19.8842 37.442 19.4946 37.442 19.0019V9.70088C37.0257 9.39128 36.3767 9.1307 35.7019 9.0275L35.8053 8.53472C35.8312 8.45732 35.9088 8.40571 36.0639 8.40571C36.7387 8.40571 38.272 8.50892 38.921 8.6405C40.506 8.6147 43.906 8.5115 44.7644 8.43409L45.4393 8.07031C46.0366 8.07031 47.0243 8.12191 47.5155 8.22511C47.6965 8.25091 47.7741 8.35411 47.7741 8.50892C47.7741 8.8211 47.6965 9.0791 47.5931 9.1823C47.5155 9.2597 47.4121 9.3113 47.2802 9.3113L38.8925 9.54608V19.4946C38.8925 19.7784 38.996 19.91 39.3347 19.91C42.9183 19.8584 49.0462 19.056 52.9142 17.9157V5.55737C52.4204 5.03879 51.5904 4.60018 50.6544 4.3138L50.8122 3.79522Z" fill="#AEACAB"/>
<path d="M80.0243 22.423C80.9345 22.4488 82.2066 22.5778 82.778 22.7609C82.959 22.8125 83.0883 22.9415 83.0883 23.1247C83.0883 23.4885 82.8297 23.7981 82.6203 23.9013C81.9196 23.8239 80.4923 23.7723 79.7373 23.7723C77.9196 23.7465 65.5605 23.9013 64.2599 23.9787C63.6109 24.0303 62.3905 24.2625 61.7933 24.4715C60.8857 24.2135 60.0014 23.7723 59.4042 23.3053C59.3266 23.2537 59.3007 23.2021 59.3266 23.1247L59.4817 22.7867C60.2858 22.9415 61.4287 23.0473 62.1811 23.0473C62.9335 23.0473 66.724 23.0215 70.5429 22.9699V17.4487C67.1403 17.2423 64.6478 15.0131 64.6478 11.93C64.6478 8.64048 67.4273 6.35974 71.1143 6.35974C74.8014 6.35974 77.5809 8.64048 77.5809 11.93C77.5809 14.9615 75.1918 17.1391 71.9211 17.4487V22.9415C75.272 22.8899 78.3876 22.8383 79.1659 22.7867L80.0243 22.423ZM71.1195 16.4657C73.8732 16.4657 76.0787 14.7551 76.0787 11.9326C76.0787 9.08166 73.8706 7.37111 71.1195 7.37111C68.3659 7.37111 66.1603 9.08166 66.1603 11.9326C66.1603 14.7551 68.3659 16.4657 71.1195 16.4657Z" fill="#AEACAB"/>
<path d="M94.969 16.4089C97.7822 17.4538 98.8604 18.6948 98.8604 20.5369C98.8604 22.7119 97.066 24.6108 93.3711 24.6108C91.7164 24.6108 90.4468 24.2522 88.9834 23.5659L88.9006 20.426H90.059L90.6382 23.0679C91.3828 23.4266 92.2671 23.6175 93.397 23.6175C95.8792 23.6175 97.0944 22.5158 97.0944 20.9755C97.0944 19.6546 96.2955 18.9115 94.1417 18.1401L92.7894 17.6447C90.6097 16.8475 89.1747 15.7175 89.1747 13.7076C89.1747 11.5327 90.9407 9.77051 94.1132 9.77051C95.7395 9.77051 96.872 10.1833 98.1959 10.9805L98.1131 13.8702H97.0091L96.5669 11.4191C95.7396 10.9522 94.9122 10.7303 94.0848 10.7303C91.9594 10.7303 90.9381 11.7752 90.9381 13.1813C90.9381 14.5848 91.7655 15.2453 93.7797 15.9884L94.969 16.4089Z" fill="#AEACAB"/>
<path d="M109.123 23.3749C108.406 24.1722 107.328 24.6134 106.004 24.6134C103.853 24.6134 102.778 23.4575 102.832 21.089C102.832 20.4569 102.86 19.8506 102.86 18.8315V11.2875H100.047V10.351L102.917 10.1033L103.496 5.9469H104.849L104.712 10.1601H108.851V11.2901H104.686V21.0349C104.686 22.7686 105.348 23.4859 106.534 23.4859C107.333 23.4859 107.887 23.2382 108.66 22.7428L109.123 23.3749Z" fill="#AEACAB"/>
<path d="M125.373 23.4292V24.2264L121.567 24.4457L121.402 21.6644C119.912 23.5092 118.064 24.6108 116.021 24.6108C113.482 24.6108 112.075 23.2073 112.104 19.1592L112.187 11.4501L109.87 11.1199V10.3227L113.787 9.99243L114.064 10.3227L113.927 14.4533V18.9967C113.927 22.0256 114.891 23.0706 116.74 23.0706C118.369 23.0706 119.941 22.245 121.376 20.6763L121.43 11.4527L119.139 11.1225V10.3253L123.002 9.99501L123.305 10.3253L123.193 14.4559V23.1273L125.373 23.4292Z" fill="#AEACAB"/>
<path d="M142.231 23.4291V24.2263L137.818 24.474L137.735 22.3533C136.577 23.8393 135.142 24.6108 133.321 24.6108C129.761 24.6108 127.307 21.6102 127.307 17.3429C127.307 12.7169 129.983 9.77307 133.652 9.77307C135.03 9.77307 136.439 10.3226 137.735 11.8371V4.01962L135.141 3.88288V3.05728L139.198 2.12073L139.612 2.34003L139.529 6.52482V23.1814L142.231 23.4291ZM137.706 12.8588C136.328 11.5378 135.167 11.0141 133.926 11.0141C131.387 11.0141 129.264 12.8872 129.264 17.2913C129.264 21.4219 131.196 23.3749 133.818 23.3749C135.281 23.3749 136.411 22.8512 137.709 21.3367V12.8588H137.706Z" fill="#AEACAB"/>
<path d="M150.068 23.4292V24.2264H143.501V23.4292L145.957 23.1273C145.986 21.6128 146.011 19.4121 146.011 17.9802V16.4657C146.011 14.7319 145.983 13.4651 145.929 12.0048L143.364 11.8113V11.0141L147.503 9.82989L147.863 10.1059L147.808 13.8779V17.9802C147.808 19.4121 147.837 21.6154 147.863 23.1273L150.068 23.4292ZM145.238 4.34992C145.238 3.41337 145.929 2.83545 146.785 2.83545C147.64 2.83545 148.357 3.41337 148.357 4.34992C148.357 5.23229 147.64 5.83601 146.785 5.83601C145.929 5.83601 145.238 5.23229 145.238 4.34992Z" fill="#AEACAB"/>
<path d="M152.137 17.2345C152.137 12.2525 155.475 9.77307 158.813 9.77307C162.151 9.77307 165.517 12.2499 165.517 17.2345C165.517 22.2449 162.151 24.6134 158.813 24.6134C155.446 24.6134 152.137 22.2449 152.137 17.2345ZM163.477 17.2345C163.477 13.1323 161.683 10.738 158.815 10.738C155.919 10.738 154.179 13.1323 154.179 17.2345C154.179 21.3625 155.917 23.62 158.815 23.62C161.683 23.6226 163.477 21.3651 163.477 17.2345Z" fill="#AEACAB"/>
</g>
<path d="M170.517 16C170.517 11.8579 173.875 8.5 178.017 8.5H207.563C211.705 8.5 215.063 11.8579 215.063 16C215.063 20.1421 211.705 23.5 207.563 23.5H178.017C173.875 23.5 170.517 20.1421 170.517 16Z" fill="#B14C59"/>
<path d="M182.915 19.8219C182.903 18.6283 182.903 17.411 182.903 16.0401H183.612C185.326 16.0401 186.082 16.6783 186.082 17.9428C186.082 19.1719 185.266 19.8219 183.742 19.8219H182.915ZM183.742 12.0928C185.089 12.0928 185.704 12.6128 185.704 13.7474C185.704 14.9528 185.018 15.5555 183.541 15.5555H182.903C182.903 14.3737 182.903 13.2274 182.915 12.0928H183.742ZM180.35 11.6083V12.0337L181.52 12.1637C181.544 13.3101 181.544 14.4683 181.544 15.6265V16.2055C181.544 17.411 181.544 18.5928 181.52 19.7628L180.35 19.8928V20.3183H183.931C186.578 20.3183 187.5 19.1128 187.5 17.931C187.5 16.8201 186.732 15.9692 184.865 15.7446C186.448 15.4374 187.027 14.6101 187.027 13.7001C187.027 12.4828 186.094 11.6083 184.144 11.6083H180.35Z" fill="white"/>
<path d="M189.903 16.7019C189.997 15.0828 190.765 14.3855 191.534 14.3855C192.337 14.3855 192.893 15.0592 192.893 15.9337C192.893 16.4301 192.763 16.7019 192.219 16.7019H189.903ZM194.027 17.1628C194.086 16.9737 194.11 16.7374 194.11 16.4419C194.11 14.941 193.117 13.9246 191.616 13.9246C190.009 13.9246 188.544 15.1774 188.544 17.2219C188.544 19.3019 189.808 20.4956 191.593 20.4956C192.739 20.4956 193.602 19.9283 194.074 18.9946L193.838 18.8292C193.389 19.3965 192.869 19.7392 192.03 19.7392C190.813 19.7392 189.926 18.9237 189.891 17.1628H194.027Z" fill="white"/>
<path d="M198.783 19.491C198.453 19.7392 198.216 19.8574 197.921 19.8574C197.448 19.8574 197.153 19.5737 197.153 18.9001V14.6337H198.831V14.1019H197.164L197.223 12.2701H196.373L195.971 14.0783L194.824 14.2083V14.6337H195.9V17.7537C195.9 18.2383 195.888 18.5455 195.888 18.9001C195.888 19.9874 196.443 20.4956 197.436 20.4956C198.157 20.4956 198.689 20.2237 199.02 19.751L198.783 19.491Z" fill="white"/>
<path d="M203.275 19.0301C202.614 19.5619 202.318 19.7274 201.893 19.7274C201.302 19.7274 200.888 19.4201 200.888 18.7228C200.888 18.1319 201.16 17.6119 202.2 17.1983C202.448 17.1037 202.85 16.9737 203.275 16.8555V19.0301ZM205.509 19.5383C205.308 19.7746 205.178 19.8692 204.965 19.8692C204.694 19.8692 204.516 19.6801 204.516 19.0892V16.1819C204.516 14.5628 203.866 13.9246 202.425 13.9246C200.971 13.9246 200.014 14.551 199.813 15.5674C199.86 15.9101 200.085 16.0874 200.439 16.0874C200.805 16.0874 201.054 15.851 201.148 15.3546L201.349 14.4801C201.609 14.4092 201.834 14.3855 202.046 14.3855C202.933 14.3855 203.275 14.7283 203.275 15.9928V16.4774C202.779 16.5955 202.259 16.7492 201.857 16.8674C200.132 17.4583 199.635 18.0374 199.635 18.9119C199.635 19.9283 200.368 20.4956 201.337 20.4956C202.165 20.4956 202.625 20.141 203.311 19.4437C203.429 20.0819 203.855 20.4719 204.516 20.4719C205.048 20.4719 205.426 20.2828 205.71 19.751L205.509 19.5383Z" fill="white"/>
<defs>
<clipPath id="clip0_65_647">
<rect width="165.517" height="32" fill="white"/>
</clipPath>
</defs>
</svg>
