<svg width="30" height="20" viewBox="0 0 30 20" fill="none" xmlns="http://www.w3.org/2000/svg">
<path fill-rule="evenodd" clip-rule="evenodd" d="M0 1.875C0 0.839466 0.839466 0 1.875 0H28.125C29.1605 0 30 0.839466 30 1.875C30 2.91053 29.1605 3.75 28.125 3.75H1.875C0.839466 3.75 0 2.91053 0 1.875ZM0 10C0 8.96447 0.839466 8.125 1.875 8.125H28.125C29.1605 8.125 30 8.96447 30 10C30 11.0355 29.1605 11.875 28.125 11.875H1.875C0.839466 11.875 0 11.0355 0 10ZM0 18.125C0 17.0895 0.839466 16.25 1.875 16.25H28.125C29.1605 16.25 30 17.0895 30 18.125C30 19.1605 29.1605 20 28.125 20H1.875C0.839466 20 0 19.1605 0 18.125Z" fill="black"/>
</svg>
