<svg width="84" height="33" viewBox="0 0 84 33" fill="none" xmlns="http://www.w3.org/2000/svg">
<g clip-path="url(#clip0_44_63)">
<path d="M27.871 14.9434L29.8936 14.8664L30.7325 14.401C31.2073 14.3849 31.7926 14.3978 32.2804 14.4363C31.8284 10.9667 30.248 7.84371 27.9165 5.4397L27.871 6.52455V14.9434Z" fill="#B14C59"/>
<path d="M26.4793 19.0645C22.7527 20.2809 17.7125 21.1636 14.2461 21.4236C13.9566 21.4492 13.6965 21.4492 13.4591 21.4492C12.7502 21.4492 12.2787 21.0352 12.0413 20.3612C11.9633 20.1526 11.9373 19.7642 11.9373 19.2731V10.3568C11.4658 10.0454 10.6756 9.75978 9.91793 9.60572L10.022 9.06329C10.048 8.96058 10.1 8.93491 10.2594 8.93491C11.0723 8.93491 12.4641 9.01194 13.0689 9.14353C13.3063 9.19489 13.4103 9.32327 13.4103 9.58325L13.3811 10.7708V19.7353C13.3811 20.0466 13.4851 20.175 13.8266 20.175C17.1596 20.098 22.8828 19.3213 26.4793 18.2589V6.05587C25.9817 5.53591 25.1395 5.09619 24.1965 4.81053L24.3526 4.29057C24.3786 4.21354 24.4306 4.18786 24.616 4.18786C25.2631 4.20712 26.2939 4.39649 27.0483 4.60191C24.1737 2.05346 20.3757 0.5 16.2101 0.5C7.25797 0.5 0 7.66389 0 16.5C0 25.3361 7.25797 32.5 16.2101 32.5C20.1415 32.5 23.7445 31.1199 26.5508 28.8218C26.5053 27.6503 26.4793 25.6892 26.4793 24.6364V19.0645Z" fill="#B14C59"/>
<path d="M27.871 24.0909C27.871 25.1661 27.7669 26.6425 27.5913 27.8911C30.5732 24.9896 32.4202 20.9583 32.4202 16.5001C32.4202 16.2401 32.4137 15.9802 32.4007 15.7234L27.871 15.7715V24.0909Z" fill="#B14C59"/>
<path d="M51.3683 4.29387C51.3944 4.21684 51.4464 4.19116 51.6317 4.19116C52.4707 4.21684 53.9665 4.52817 54.6494 4.78815C54.8608 4.86518 54.9388 5.02246 54.9388 5.25355L54.8868 6.52135V24.0909C54.8868 25.5159 54.7014 27.6407 54.4153 29.0144H53.5763C53.5243 27.875 53.4983 25.7502 53.4983 24.6365V19.2443C49.4303 20.5153 43.9705 21.4461 40.1887 21.6804C39.8993 21.7061 39.6392 21.7061 39.4018 21.7061C38.6669 21.7061 38.1954 21.2921 37.958 20.5924C37.88 20.3837 37.8539 19.9954 37.8539 19.5043V10.2028C37.4345 9.89146 36.7776 9.63148 36.0947 9.52877L36.1988 9.0377C36.2248 8.96067 36.3028 8.90932 36.4622 8.90932C37.1451 8.90932 38.6929 9.01202 39.3498 9.14362C40.9496 9.11794 44.39 9.01203 45.255 8.93499L45.9379 8.57231C46.5427 8.57231 47.5377 8.62366 48.0385 8.72958C48.2206 8.75525 48.3019 8.85796 48.3019 9.01523C48.3019 9.32657 48.2239 9.58655 48.1166 9.68926C48.0385 9.76629 47.9312 9.81764 47.8011 9.81764L39.3237 10.0519V20.0018C39.3237 20.2875 39.4278 20.4158 39.7692 20.4158C43.3917 20.3645 49.5864 19.5621 53.4983 18.4194V6.05596C53.0007 5.53921 52.1585 5.09628 51.2155 4.81062L51.3683 4.29387Z" fill="#B2B1B0"/>
<path d="M80.9011 22.9223C81.8214 22.948 83.1058 23.0796 83.6846 23.2594C83.87 23.3107 84.0001 23.4391 84.0001 23.622C84.0001 23.9847 83.7367 24.2961 83.5285 24.3988C82.8197 24.3217 81.3759 24.2704 80.615 24.2704C78.7777 24.2447 66.2811 24.3988 64.9706 24.479C64.3138 24.5304 63.0814 24.7647 62.4765 24.9701C61.5595 24.7101 60.6653 24.2704 60.0605 23.805C59.9824 23.7536 59.9564 23.7023 59.9824 23.622L60.1385 23.285C60.9514 23.4391 62.1091 23.545 62.87 23.545C63.6309 23.545 67.4648 23.5193 71.3214 23.468V17.9474C67.881 17.742 65.3609 15.5145 65.3609 12.4301C65.3609 9.1402 68.1704 6.85815 71.8969 6.85815C75.6235 6.85815 78.433 9.13699 78.433 12.4301C78.433 15.46 76.0169 17.6393 72.7099 17.9474V23.4391C76.095 23.3877 79.246 23.3364 80.0329 23.285L80.9011 22.9223ZM71.8969 16.9653C74.6805 16.9653 76.9112 15.2545 76.9112 12.4301C76.9112 9.57992 74.6805 7.86919 71.8969 7.86919C69.1134 7.86919 66.8827 9.57992 66.8827 12.4301C66.8827 15.2545 69.1134 16.9653 71.8969 16.9653Z" fill="#B2B1B0"/>
</g>
<defs>
<clipPath id="clip0_44_63">
<rect width="84" height="32" fill="white" transform="translate(0 0.5)"/>
</clipPath>
</defs>
</svg>
