<svg width="78" height="23" viewBox="0 0 78 23" fill="none" xmlns="http://www.w3.org/2000/svg">
<path d="M6.9691 14.4089C9.78223 15.4538 10.8604 16.6948 10.8604 18.5369C10.8604 20.7119 9.06602 22.6108 5.3712 22.6108C3.71642 22.6108 2.44689 22.2522 0.983437 21.5659L0.900696 18.426H2.05905L2.63822 21.0679C3.38287 21.4266 4.26715 21.6175 5.39706 21.6175C7.87924 21.6175 9.09447 20.5158 9.09447 18.9755C9.09447 17.6546 8.29552 16.9115 6.14171 16.1401L4.78944 15.6447C2.60978 14.8475 1.17478 13.7175 1.17478 11.7076C1.17478 9.53266 2.94074 7.77051 6.11327 7.77051C7.73961 7.77051 8.87211 8.18331 10.1959 8.98054L10.1132 11.8702H9.00914L8.56701 9.41914C7.73962 8.95216 6.91222 8.73028 6.08483 8.73028C3.95947 8.73028 2.93815 9.77518 2.93815 11.1813C2.93815 12.5848 3.76555 13.2453 5.77973 13.9884L6.9691 14.4089Z" fill="#AEACAB"/>
<path d="M21.1227 21.3749C20.4065 22.1722 19.3283 22.6134 18.0044 22.6134C15.8532 22.6134 14.7776 21.4575 14.8319 19.089C14.8319 18.4569 14.8603 17.8506 14.8603 16.8315V9.28754H12.0472V8.351L14.9172 8.10331L15.4964 3.9469H16.8487L16.7116 8.16007H20.8512V9.29012H16.6858V19.0349C16.6858 20.7686 17.3477 21.4859 18.5345 21.4859C19.3334 21.4859 19.8868 21.2382 20.6598 20.7428L21.1227 21.3749Z" fill="#AEACAB"/>
<path d="M37.3732 21.4292V22.2264L33.5672 22.4457L33.4017 19.6644C31.9124 21.5092 30.0637 22.6108 28.0211 22.6108C25.482 22.6108 24.0754 21.2073 24.1039 17.1592L24.1866 9.45014L21.8699 9.1199V8.32267L25.7871 7.99243L26.0637 8.32267L25.9267 12.4533V16.9967C25.9267 20.0256 26.8911 21.0706 28.7398 21.0706C30.3688 21.0706 31.9408 20.245 33.3758 18.6763L33.4301 9.45272L31.1393 9.12248V8.32525L35.0022 7.99501L35.3047 8.32525L35.1935 12.4559V21.1273L37.3732 21.4292Z" fill="#AEACAB"/>
<path d="M54.2313 21.4291V22.2263L49.8177 22.474L49.735 20.3533C48.5766 21.8393 47.1416 22.6108 45.3213 22.6108C41.761 22.6108 39.3072 19.6102 39.3072 15.3429C39.3072 10.7169 41.9833 7.77307 45.6523 7.77307C47.0304 7.77307 48.4396 8.32261 49.735 9.83709V2.01962L47.1416 1.88288V1.05728L51.1984 0.120728L51.6121 0.340029L51.5294 4.52482V21.1814L54.2313 21.4291ZM49.7065 10.8588C48.3284 9.5378 47.1674 9.01406 45.9264 9.01406C43.3873 9.01406 41.2645 10.8872 41.2645 15.2913C41.2645 19.4219 43.196 21.3749 45.8178 21.3749C47.2812 21.3749 48.4111 20.8512 49.7091 19.3367V10.8588H49.7065Z" fill="#AEACAB"/>
<path d="M62.0682 21.4292V22.2264H55.5008V21.4292L57.9571 21.1273C57.9856 19.6128 58.0114 17.4121 58.0114 15.9802V14.4657C58.0114 12.7319 57.983 11.4651 57.9287 10.0048L55.3638 9.81134V9.01412L59.5033 7.82989L59.8627 8.10595L59.8084 11.8779V15.9802C59.8084 17.4121 59.8369 19.6154 59.8627 21.1273L62.0682 21.4292ZM57.2383 2.34992C57.2383 1.41337 57.9287 0.835449 58.7845 0.835449C59.6404 0.835449 60.3566 1.41337 60.3566 2.34992C60.3566 3.23229 59.6404 3.83601 58.7845 3.83601C57.9287 3.83601 57.2383 3.23229 57.2383 2.34992Z" fill="#AEACAB"/>
<path d="M64.1367 15.2345C64.1367 10.2525 67.4747 7.77307 70.8128 7.77307C74.1508 7.77307 77.5172 10.2499 77.5172 15.2345C77.5172 20.2449 74.1508 22.6134 70.8128 22.6134C67.4463 22.6134 64.1367 20.2449 64.1367 15.2345ZM75.4772 15.2345C75.4772 11.1323 73.6828 8.738 70.8153 8.738C67.9195 8.738 66.1794 11.1323 66.1794 15.2345C66.1794 19.3625 67.9169 21.62 70.8153 21.62C73.6828 21.6226 75.4772 19.3651 75.4772 15.2345Z" fill="#AEACAB"/>
</svg>
