<svg width="413" height="188" viewBox="0 0 413 188" fill="none" xmlns="http://www.w3.org/2000/svg">
<path d="M333.012 174.26C333.012 166.822 339.041 160.792 346.479 160.792H399.533C406.97 160.792 413 166.822 413 174.26C413 181.698 406.97 187.727 399.533 187.727H346.479C339.041 187.727 333.012 181.698 333.012 174.26Z" fill="#B14C59"/>
<path d="M355.274 181.123C355.252 178.979 355.252 176.793 355.252 174.332H356.526C359.603 174.332 360.961 175.478 360.961 177.748C360.961 179.955 359.497 181.123 356.759 181.123H355.274ZM356.759 167.244C359.178 167.244 360.282 168.178 360.282 170.215C360.282 172.379 359.051 173.462 356.398 173.462H355.252C355.252 171.34 355.252 169.281 355.274 167.244H356.759ZM350.669 166.374V167.138L352.77 167.371C352.812 169.43 352.812 171.509 352.812 173.589V174.629C352.812 176.793 352.812 178.916 352.77 181.016L350.669 181.25V182.014H357.099C361.852 182.014 363.508 179.849 363.508 177.727C363.508 175.732 362.128 174.204 358.775 173.801C361.619 173.249 362.659 171.764 362.659 170.13C362.659 167.944 360.982 166.374 357.481 166.374H350.669Z" fill="white"/>
<path d="M367.822 175.52C367.991 172.613 369.371 171.361 370.75 171.361C372.193 171.361 373.191 172.57 373.191 174.141C373.191 175.032 372.957 175.52 371.981 175.52H367.822ZM375.228 176.348C375.334 176.008 375.376 175.584 375.376 175.053C375.376 172.358 373.594 170.533 370.899 170.533C368.013 170.533 365.381 172.783 365.381 176.454C365.381 180.189 367.652 182.332 370.856 182.332C372.915 182.332 374.464 181.314 375.313 179.637L374.888 179.34C374.082 180.359 373.148 180.974 371.641 180.974C369.456 180.974 367.864 179.51 367.8 176.348H375.228Z" fill="white"/>
<path d="M383.768 180.528C383.174 180.974 382.75 181.186 382.219 181.186C381.37 181.186 380.84 180.677 380.84 179.467V171.806H383.853V170.851H380.861L380.967 167.562H379.439L378.718 170.809L376.659 171.042V171.806H378.59V177.409C378.59 178.279 378.569 178.831 378.569 179.467C378.569 181.42 379.567 182.332 381.349 182.332C382.644 182.332 383.599 181.844 384.193 180.995L383.768 180.528Z" fill="white"/>
<path d="M391.835 179.701C390.646 180.656 390.116 180.953 389.352 180.953C388.291 180.953 387.548 180.401 387.548 179.149C387.548 178.088 388.036 177.154 389.903 176.411C390.349 176.242 391.071 176.008 391.835 175.796V179.701ZM395.845 180.613C395.485 181.038 395.251 181.207 394.869 181.207C394.381 181.207 394.063 180.868 394.063 179.807V174.586C394.063 171.679 392.896 170.533 390.307 170.533C387.696 170.533 385.977 171.658 385.617 173.483C385.702 174.098 386.105 174.417 386.741 174.417C387.399 174.417 387.845 173.992 388.015 173.101L388.375 171.531C388.842 171.403 389.246 171.361 389.628 171.361C391.219 171.361 391.835 171.976 391.835 174.247V175.117C390.943 175.329 390.01 175.605 389.288 175.817C386.19 176.878 385.298 177.918 385.298 179.489C385.298 181.314 386.614 182.332 388.354 182.332C389.84 182.332 390.667 181.696 391.898 180.443C392.11 181.589 392.874 182.29 394.063 182.29C395.018 182.29 395.697 181.95 396.206 180.995L395.845 180.613Z" fill="white"/>
<path d="M87.0238 45.6912L93.3331 45.4463L95.9531 43.969C97.4305 43.92 99.2669 43.9608 100.793 44.0833C99.3812 33.1053 94.4513 23.2292 87.1626 15.6222L87.0238 19.0503V45.6912Z" fill="white"/>
<path d="M82.6816 58.726C71.0425 62.5785 55.3061 65.3617 44.4832 66.1861C43.5854 66.2677 42.761 66.2677 42.0264 66.2677C39.8145 66.2677 38.3372 64.9536 37.6026 62.8233C37.3577 62.1704 37.2761 60.9379 37.2761 59.379V31.1872C35.7988 30.1996 33.342 29.3018 30.9668 28.8121L31.2933 27.0899C31.3749 26.7634 31.5382 26.6818 32.0279 26.6818C34.5663 26.6818 38.9167 26.9266 40.8021 27.3347C41.5367 27.498 41.8713 27.9061 41.8713 28.7304L41.7897 32.5013V60.8644C41.7897 61.8439 42.1162 62.2602 43.1854 62.2602C53.5921 62.0153 71.467 59.5504 82.6979 56.1957V17.5892C81.139 15.9487 78.519 14.5529 75.5643 13.6551L76.054 12.0145C76.1357 11.7697 76.2989 11.6881 76.8784 11.6881C78.8944 11.7534 82.1184 12.3492 84.4691 12.994C75.4908 4.91356 63.6232 0 50.6129 0C22.6579 0 0 22.6579 0 50.6129C0 78.5679 22.6579 101.226 50.6129 101.226C62.8886 101.226 74.1359 96.8591 82.902 89.5867C82.7551 85.873 82.6816 79.678 82.6816 76.3397V58.726Z" fill="white"/>
<path d="M87.0238 74.6257C87.0238 78.0293 86.6973 82.698 86.1505 86.6484C95.4552 77.4661 101.234 64.7169 101.234 50.6129C101.234 49.7885 101.209 48.9723 101.169 48.1561L87.0238 48.3112V74.6257Z" fill="white"/>
<path d="M160.401 12.0064C160.482 11.7616 160.646 11.68 161.225 11.68C163.845 11.7616 168.522 12.7492 170.652 13.5654C171.305 13.8103 171.55 14.3081 171.55 15.0427L171.387 19.0585V74.6339C171.387 79.1393 170.815 85.8649 169.91 90.2071H167.289C167.126 86.5995 167.045 79.8821 167.045 76.3561V59.2974C154.336 63.3131 137.286 66.2678 125.483 67.0024C124.586 67.084 123.761 67.084 123.027 67.084C120.733 67.084 119.256 65.7699 118.521 63.558C118.276 62.905 118.195 61.6725 118.195 60.1136V30.6894C116.881 29.7099 114.832 28.8856 112.702 28.5591L113.028 27.0001C113.11 26.7553 113.355 26.592 113.844 26.592C115.975 26.592 120.815 26.9185 122.863 27.3348C127.867 27.2532 138.6 26.9267 141.31 26.6818L143.44 25.531C145.325 25.531 148.443 25.6942 149.994 26.0207C150.565 26.1023 150.81 26.4288 150.81 26.9185C150.81 27.9061 150.565 28.7223 150.239 29.0488C149.994 29.2937 149.668 29.4569 149.251 29.4569L122.774 30.1997V61.6725C122.774 62.5704 123.1 62.9866 124.169 62.9866C135.482 62.8234 154.826 60.285 167.036 56.6774V17.5811C165.478 15.9406 162.857 14.553 159.903 13.647L160.401 12.0064Z" fill="white"/>
<path d="M252.616 70.9365C255.489 71.0181 259.504 71.4262 261.308 72.0057C261.88 72.1689 262.288 72.577 262.288 73.1565C262.288 74.3074 261.471 75.2868 260.81 75.6133C258.598 75.3684 254.093 75.2052 251.71 75.2052C245.972 75.1236 206.957 75.6133 202.852 75.8582C200.803 76.0214 196.95 76.756 195.065 77.4171C192.2 76.6009 189.409 75.2052 187.523 73.7279C187.278 73.5646 187.197 73.4014 187.278 73.1565L187.768 72.0873C190.306 72.577 193.914 72.9117 196.289 72.9117C198.664 72.9117 210.63 72.83 222.685 72.6668V55.2C211.944 54.547 204.076 47.495 204.076 37.7414C204.076 27.3348 212.85 20.1195 224.489 20.1195C236.128 20.1195 244.902 27.3348 244.902 37.7414C244.902 47.3318 237.361 54.2206 227.036 55.2V72.577C237.614 72.4138 247.449 72.2505 249.906 72.0873L252.616 70.9365ZM224.505 52.0903C233.198 52.0903 240.16 46.6788 240.16 37.7495C240.16 28.7305 233.19 23.319 224.505 23.319C215.813 23.319 208.851 28.7305 208.851 37.7495C208.851 46.6788 215.813 52.0903 224.505 52.0903Z" fill="white"/>
<path d="M44.3853 156.785C55.0123 160.613 59.0525 165.184 59.0525 172.301C59.0525 180.586 52.1474 187.711 38.329 187.711C31.8483 187.711 27.0654 186.332 21.4336 183.777L21.2213 171.877H25.0493L27.0654 182.291C30.1506 183.671 33.546 184.52 38.329 184.52C48.2133 184.52 53.1023 180.055 53.1023 173.893C53.1023 168.473 50.1232 165.714 41.4143 162.523L36.1008 160.613C27.8163 157.634 22.3967 153.283 22.3967 145.627C22.3967 137.229 29.0896 130.854 41.0959 130.854C47.2583 130.854 51.5107 132.34 56.7181 135.425L56.3998 146.264H52.6779L51.0863 136.804C47.6827 134.894 44.3934 134.046 40.8837 134.046C32.3789 134.046 28.3468 138.298 28.3468 143.93C28.3468 149.455 31.6443 152.108 39.3982 154.875L44.3853 156.785Z" fill="white"/>
<path d="M98.3609 183.246C95.6022 186.119 91.6681 187.711 86.779 187.711C78.4945 187.711 74.6665 183.14 74.7726 173.901C74.7726 171.354 74.8787 169.224 74.8787 165.502V136.07H63.7212V132.984L75.0909 132.029L77.2131 115.771H81.7838L81.2533 132.348H97.0877V136.07H81.1472V174.007C81.1472 180.806 83.7998 183.785 88.5828 183.785C91.7742 183.785 94.0024 182.936 96.8755 181.238L98.3609 183.246Z" fill="white"/>
<path d="M161.266 183.352V186.217L146.917 187.066L146.599 176.015C141.073 183.026 134.168 187.703 125.875 187.703C115.885 187.703 110.465 182.283 110.571 166.555L110.996 136.804L101.642 135.637V132.878L116.309 131.605L117.37 132.878L116.84 148.819V166.245C116.84 178.357 120.88 182.61 128.21 182.61C134.902 182.61 141.065 178.994 146.484 172.619L146.697 136.812L137.555 135.751V132.878L152.108 131.605L153.169 132.878L152.745 148.819V182.504L161.266 183.352Z" fill="white"/>
<path d="M226.407 183.352V186.217L209.724 187.172L209.512 178.994C204.729 184.944 198.885 187.703 192.192 187.703C178.7 187.703 169.24 176.227 169.24 159.968C169.24 141.906 179.655 130.854 193.571 130.854C198.991 130.854 204.623 133.188 209.618 139.147V107.266L199.628 106.947V104.074L214.401 101.21L215.992 102.164L215.674 118.105V182.602L226.407 183.352ZM209.406 142.33C204.411 137.229 199.84 135 194.526 135C184.43 135 176.039 142.436 176.039 159.862C176.039 175.696 183.687 183.45 193.784 183.45C199.734 183.45 204.411 181.328 209.406 175.484V142.33Z" fill="white"/>
<path d="M256.582 183.352V186.217H231.827V183.352L241.499 182.397C241.605 176.553 241.711 167.836 241.711 162.205V156.361C241.711 149.562 241.605 143.93 241.287 137.767L231.296 137.449V134.682L246.706 131.172L248.086 131.915L247.767 146.158V162.205C247.767 167.943 247.873 176.553 247.98 182.397L256.582 183.352ZM238.838 109.608C238.838 106.523 241.172 104.401 244.152 104.401C247.025 104.401 249.571 106.523 249.571 109.608C249.571 112.8 247.025 114.816 244.152 114.816C241.181 114.816 238.838 112.791 238.838 109.608Z" fill="white"/>
<path d="M264.981 159.34C264.981 140.216 277.624 130.862 290.488 130.862C303.237 130.862 315.994 140.216 315.994 159.34C315.994 178.676 303.351 187.711 290.488 187.711C277.518 187.703 264.981 178.569 264.981 159.34ZM309.081 159.438C309.081 143.391 301.857 134.045 290.488 134.045C279.118 134.045 271.894 143.399 271.894 159.438C271.894 175.476 279.118 184.511 290.488 184.511C301.849 184.52 309.081 175.484 309.081 159.438Z" fill="white"/>
</svg>
