<svg width="84" height="32" viewBox="0 0 84 32" fill="none" xmlns="http://www.w3.org/2000/svg">
<path d="M27.5677 14.4429L29.5664 14.3655L30.3963 13.8985C30.8643 13.883 31.4461 13.8959 31.9296 13.9346C31.4823 10.4645 29.9206 7.34269 27.6116 4.93811L27.5677 6.02172V14.4429Z" fill="#B14C59"/>
<path d="M26.1921 18.5632C22.5051 19.781 17.52 20.6608 14.0915 20.9214C13.8071 20.9472 13.546 20.9472 13.3133 20.9472C12.6126 20.9472 12.1446 20.5318 11.9119 19.8584C11.8343 19.652 11.8084 19.2624 11.8084 18.7697V9.85826C11.3404 9.54608 10.5622 9.26228 9.80977 9.10747L9.91319 8.56309C9.93905 8.45989 9.99076 8.43409 10.1459 8.43409C10.95 8.43409 12.3281 8.51149 12.9254 8.64049C13.1581 8.69209 13.2641 8.82109 13.2641 9.08167L13.2383 10.2736V19.2392C13.2383 19.5488 13.3417 19.6804 13.6804 19.6804C16.9771 19.603 22.6395 18.8238 26.1973 17.7634V5.55995C25.7035 5.04136 24.8735 4.60018 23.9375 4.31638L24.0926 3.79779C24.1185 3.72039 24.1702 3.69459 24.3538 3.69459C24.9924 3.71523 26.0137 3.90357 26.7584 4.10739C23.9142 1.55317 20.1548 0 16.0333 0C7.17763 0 0 7.16214 0 15.9987C0 24.8353 7.17763 31.9974 16.0333 31.9974C19.9221 31.9974 23.485 30.6171 26.2619 28.3183C26.2154 27.1444 26.1921 25.1862 26.1921 24.1309V18.5632Z" fill="#B14C59"/>
<path d="M27.5677 23.5892C27.5677 24.665 27.4643 26.1408 27.291 27.3895C30.2386 24.487 32.0692 20.457 32.0692 15.9988C32.0692 15.7382 32.0614 15.4802 32.0485 15.2222L27.5677 15.2712V23.5892Z" fill="#B14C59"/>
<path d="M50.8122 3.79522C50.8381 3.71782 50.8898 3.69202 51.0734 3.69202C51.9033 3.71782 53.3849 4.03 54.0597 4.288C54.2666 4.3654 54.3441 4.52278 54.3441 4.75499L54.2924 6.02436V23.5917C54.2924 25.0159 54.1114 27.1418 53.8244 28.5144H52.9945C52.9428 27.374 52.9169 25.2507 52.9169 24.1361V18.7439C48.8911 20.0132 43.4898 20.9472 39.751 21.1794C39.4666 21.2052 39.2055 21.2052 38.9727 21.2052C38.2462 21.2052 37.7782 20.7898 37.5455 20.0906C37.4679 19.8842 37.4421 19.4946 37.4421 19.0019V9.70088C37.0258 9.39128 36.3768 9.1307 35.702 9.0275L35.8054 8.53472C35.8312 8.45732 35.9088 8.40571 36.0639 8.40571C36.7388 8.40571 38.2721 8.50892 38.921 8.6405C40.506 8.6147 43.9061 8.5115 44.7645 8.43409L45.4393 8.07031C46.0366 8.07031 47.0243 8.12191 47.5156 8.22511C47.6966 8.25091 47.7741 8.35411 47.7741 8.50892C47.7741 8.8211 47.6966 9.0791 47.5931 9.1823C47.5156 9.2597 47.4122 9.3113 47.2803 9.3113L38.8926 9.54608V19.4946C38.8926 19.7784 38.996 19.91 39.3347 19.91C42.9184 19.8584 49.0463 19.056 52.9143 17.9157V5.55737C52.4205 5.03879 51.5905 4.60018 50.6545 4.3138L50.8122 3.79522Z" fill="#AEACAB"/>
<path d="M80.0244 22.423C80.9345 22.4488 82.2066 22.5778 82.778 22.7609C82.959 22.8125 83.0883 22.9415 83.0883 23.1247C83.0883 23.4885 82.8297 23.7981 82.6203 23.9013C81.9196 23.8239 80.4924 23.7723 79.7374 23.7723C77.9197 23.7465 65.5605 23.9013 64.2599 23.9787C63.611 24.0303 62.3906 24.2625 61.7933 24.4715C60.8857 24.2135 60.0015 23.7723 59.4042 23.3053C59.3266 23.2537 59.3008 23.2021 59.3266 23.1247L59.4818 22.7867C60.2859 22.9415 61.4287 23.0473 62.1811 23.0473C62.9335 23.0473 66.724 23.0215 70.543 22.9699V17.4487C67.1403 17.2423 64.6478 15.0131 64.6478 11.93C64.6478 8.64048 67.4273 6.35974 71.1144 6.35974C74.8014 6.35974 77.581 8.64048 77.581 11.93C77.581 14.9615 75.1919 17.1391 71.9211 17.4487V22.9415C75.272 22.8899 78.3877 22.8383 79.1659 22.7867L80.0244 22.423ZM71.1195 16.4657C73.8732 16.4657 76.0787 14.7551 76.0787 11.9326C76.0787 9.08166 73.8706 7.37111 71.1195 7.37111C68.3659 7.37111 66.1604 9.08166 66.1604 11.9326C66.1604 14.7551 68.3659 16.4657 71.1195 16.4657Z" fill="#AEACAB"/>
</svg>
