<svg width="33" height="33" viewBox="0 0 33 33" fill="none" xmlns="http://www.w3.org/2000/svg">
<circle cx="16.5" cy="16.5" r="16.5" fill="#B14C59"/>
<path d="M24.8908 12.8156C24.8908 11.3213 23.7916 10.1192 22.4334 10.1192C20.5937 10.0332 18.7175 10 16.8001 10H16.2024C14.2897 10 12.4101 10.0332 10.5704 10.1195C9.21559 10.1195 8.11643 11.3283 8.11643 12.8226C8.03341 14.0045 7.99821 15.1866 8.0002 16.3688C7.99688 17.551 8.03452 18.7343 8.11311 19.9187C8.11311 21.413 9.21227 22.6251 10.5671 22.6251C12.4998 22.7147 14.4823 22.7546 16.498 22.7513C18.517 22.7579 20.4939 22.7159 22.4288 22.6251C23.787 22.6251 24.8861 21.413 24.8861 19.9187C24.9658 18.7332 25.0023 17.551 24.999 16.3655C25.0066 15.1833 24.9705 14 24.8908 12.8156ZM14.8741 19.6265V13.1012L19.6892 16.3622L14.8741 19.6265Z" fill="white"/>
</svg>
