<svg width="80" height="80" viewBox="0 0 80 80" fill="none" xmlns="http://www.w3.org/2000/svg">
<path d="M80 40C80 62.0914 62.0914 80 40 80C17.9086 80 0 62.0914 0 40C0 17.9086 17.9086 0 40 0C62.0914 0 80 17.9086 80 40Z" fill="white" fill-opacity="0.2"/>
<path d="M40 43.1047C39.6065 43.1044 39.2234 42.978 38.907 42.7439L38.8562 42.7047L31.8211 36.9357H26.4621C25.9724 36.9357 25.5029 36.7412 25.1567 36.395C24.8105 36.0488 24.616 35.5792 24.616 35.0896V26.4753C24.616 25.9857 24.8105 25.5161 25.1567 25.1699C25.5029 24.8237 25.9724 24.6292 26.4621 24.6292H31.8196L38.8547 18.8602L38.9055 18.8209C39.1805 18.6184 39.5063 18.4962 39.8467 18.4678C40.1871 18.4394 40.5286 18.506 40.8334 18.6602C41.1382 18.8144 41.3942 19.0501 41.573 19.3411C41.7518 19.6321 41.8463 19.967 41.8461 20.3086V41.2571C41.8461 41.7467 41.6516 42.2162 41.3054 42.5624C40.9592 42.9087 40.4897 43.1032 40 43.1032V43.1047ZM46.769 36.9364C46.5591 36.9363 46.3527 36.8825 46.1695 36.7802C45.9862 36.6778 45.8322 36.5303 45.722 36.3516C45.6119 36.1729 45.5493 35.969 45.5401 35.7593C45.531 35.5496 45.5756 35.341 45.6698 35.1534C46.3998 33.6996 46.7698 32.2305 46.7698 30.7828C46.7698 29.2936 46.4114 27.866 45.6737 26.4191C45.5324 26.1292 45.5105 25.7954 45.6128 25.4895C45.7151 25.1836 45.9334 24.9301 46.2207 24.7835C46.508 24.637 46.8413 24.609 47.149 24.7058C47.4567 24.8025 47.7141 25.0161 47.8659 25.3007C48.7843 27.1029 49.2305 28.896 49.2305 30.7828C49.2305 32.6158 48.769 34.4581 47.869 36.258C47.7666 36.462 47.6095 36.6334 47.4152 36.7532C47.221 36.873 46.9973 36.9365 46.769 36.9364Z" fill="white"/>
<path d="M50.4618 40.628C50.2456 40.6282 50.0333 40.5715 49.846 40.4635C49.6588 40.3556 49.5033 40.2002 49.3951 40.0131C49.287 39.826 49.23 39.6137 49.23 39.3976C49.2299 39.1814 49.2868 38.9691 49.3949 38.7819C50.8464 36.2474 51.6925 34.1244 51.6925 30.7822C51.6925 27.3885 50.851 25.2809 49.3979 22.7863C49.248 22.5051 49.213 22.1766 49.3003 21.87C49.3877 21.5635 49.5906 21.3028 49.8663 21.1428C50.142 20.9828 50.469 20.936 50.7785 21.0123C51.088 21.0886 51.3558 21.282 51.5256 21.5518C53.1478 24.3332 54.1539 26.85 54.1539 30.7822C54.1539 34.6559 53.1494 37.1851 51.5294 40.0127C51.4212 40.2 51.2656 40.3556 51.0781 40.4636C50.8907 40.5716 50.6781 40.6283 50.4618 40.628Z" fill="white"/>
<g opacity="0.9">
<path d="M33.9378 64.2957C36.6516 64.2957 38.7931 62.4495 38.7931 59.1264C38.7931 55.8034 36.5224 53.9941 33.9378 53.9941C31.3531 53.9941 29.1008 55.8218 29.1008 59.1264C29.1008 62.4126 31.2054 64.2957 33.9378 64.2957ZM33.9378 63.6865C32.2947 63.6865 31.3162 62.1541 31.3162 59.1449C31.3162 56.1357 32.2947 54.6034 33.9378 54.6034C35.5624 54.6034 36.5408 56.1357 36.5408 59.1449C36.5408 62.1541 35.5624 63.6865 33.9378 63.6865Z" fill="white"/>
<path d="M40.3126 64.0003H45.1495V63.4649L43.2111 63.2803H42.288L40.3126 63.4649V64.0003ZM41.6972 64.0003H43.8941C43.8572 63.0957 43.8388 60.9911 43.8388 59.7172V56.3018L43.7095 54.1788L43.4695 54.0311L40.1834 54.9172V55.3788L41.6972 55.4895C41.7526 56.3941 41.7711 57.2064 41.7711 58.4434V59.7172C41.7711 60.9911 41.7526 63.0957 41.6972 64.0003ZM46.6449 64.0003H51.4818V63.4649L49.5065 63.2803H48.5834L46.6449 63.4649V64.0003ZM48.0111 64.0003H50.208C50.1711 63.0957 50.1341 61.028 50.1341 59.7172V57.5018C50.1341 55.028 49.0818 53.9941 47.4203 53.9941C46.0911 53.9941 44.8541 54.6034 43.488 56.3018H43.248L43.3588 57.0218C44.5772 55.6372 45.7403 55.1203 46.5341 55.1203C47.5311 55.1203 48.0665 55.7111 48.0665 57.3911V59.7172C48.0665 61.028 48.048 63.0957 48.0111 64.0003Z" fill="white"/>
</g>
<path fill-rule="evenodd" clip-rule="evenodd" d="M79.8769 0.123077H0.123077V79.8769H79.8769V0.123077ZM0 0V80H80V0H0Z" fill="black" fill-opacity="0.01"/>
<path fill-rule="evenodd" clip-rule="evenodd" d="M54.031 18.5847H24.7387V42.954H54.031V18.5847ZM24.6156 18.4617V43.0771H54.1541V18.4617H24.6156Z" fill="black" fill-opacity="0.01"/>
<path fill-rule="evenodd" clip-rule="evenodd" d="M51.5685 54.2769H28.4301V63.8769H51.5685V54.2769ZM28.307 54.1538V64H51.6916V54.1538H28.307Z" fill="black" fill-opacity="0.01"/>
</svg>
