<svg width="84" height="32" viewBox="0 0 84 32" fill="none" xmlns="http://www.w3.org/2000/svg">
<g clip-path="url(#clip0_61_401)">
<path d="M27.8711 14.4434L29.8937 14.3664L30.7327 13.901C31.2074 13.8849 31.7927 13.8978 32.2805 13.9363C31.8285 10.4667 30.2481 7.34371 27.9166 4.9397L27.8711 6.02455V14.4434Z" fill="#B14C59"/>
<path d="M26.4793 18.5645C22.7527 19.7809 17.7125 20.6636 14.2461 20.9236C13.9566 20.9492 13.6965 20.9492 13.4591 20.9492C12.7502 20.9492 12.2787 20.5352 12.0413 19.8612C11.9633 19.6526 11.9373 19.2642 11.9373 18.7731V9.85677C11.4658 9.54544 10.6756 9.25978 9.91793 9.10572L10.022 8.56329C10.048 8.46058 10.1 8.43491 10.2594 8.43491C11.0723 8.43491 12.4641 8.51194 13.0689 8.64353C13.3063 8.69489 13.4103 8.82327 13.4103 9.08325L13.3811 10.2708V19.2353C13.3811 19.5466 13.4851 19.675 13.8266 19.675C17.1596 19.598 22.8828 18.8213 26.4793 17.7589V5.55587C25.9817 5.03591 25.1395 4.59619 24.1965 4.31053L24.3526 3.79057C24.3786 3.71354 24.4306 3.68786 24.616 3.68786C25.2631 3.70712 26.2939 3.89649 27.0483 4.10191C24.1737 1.55346 20.3757 0 16.2101 0C7.25797 0 0 7.16389 0 16C0 24.8361 7.25797 32 16.2101 32C20.1415 32 23.7445 30.6199 26.5508 28.3218C26.5053 27.1503 26.4793 25.1892 26.4793 24.1364V18.5645Z" fill="#B14C59"/>
<path d="M27.871 23.5909C27.871 24.6661 27.7669 26.1425 27.5913 27.3911C30.5732 24.4896 32.4202 20.4583 32.4202 16.0001C32.4202 15.7401 32.4137 15.4802 32.4007 15.2234L27.871 15.2715V23.5909Z" fill="#B14C59"/>
<path d="M51.3683 3.79387C51.3944 3.71684 51.4464 3.69116 51.6317 3.69116C52.4707 3.71684 53.9665 4.02817 54.6494 4.28815C54.8608 4.36518 54.9388 4.52246 54.9388 4.75355L54.8868 6.02135V23.5909C54.8868 25.0159 54.7014 27.1407 54.4153 28.5144H53.5763C53.5243 27.375 53.4983 25.2502 53.4983 24.1365V18.7443C49.4303 20.0153 43.9705 20.9461 40.1887 21.1804C39.8993 21.2061 39.6392 21.2061 39.4018 21.2061C38.6669 21.2061 38.1954 20.7921 37.958 20.0924C37.88 19.8837 37.8539 19.4954 37.8539 19.0043V9.7028C37.4345 9.39146 36.7776 9.13148 36.0947 9.02877L36.1988 8.5377C36.2248 8.46067 36.3028 8.40932 36.4622 8.40932C37.1451 8.40932 38.6929 8.51202 39.3498 8.64362C40.9496 8.61794 44.39 8.51203 45.255 8.43499L45.9379 8.07231C46.5427 8.07231 47.5377 8.12366 48.0385 8.22958C48.2206 8.25525 48.3019 8.35796 48.3019 8.51523C48.3019 8.82657 48.2239 9.08655 48.1166 9.18926C48.0385 9.26629 47.9312 9.31764 47.8011 9.31764L39.3237 9.55194V19.5018C39.3237 19.7875 39.4278 19.9158 39.7692 19.9158C43.3917 19.8645 49.5864 19.0621 53.4983 17.9194V5.55596C53.0007 5.03921 52.1585 4.59628 51.2155 4.31062L51.3683 3.79387Z" fill="#B2B1B0"/>
<path d="M80.9011 22.4223C81.8214 22.448 83.1058 22.5796 83.6846 22.7594C83.87 22.8107 84.0001 22.9391 84.0001 23.122C84.0001 23.4847 83.7367 23.7961 83.5285 23.8988C82.8197 23.8217 81.3759 23.7704 80.615 23.7704C78.7777 23.7447 66.2811 23.8988 64.9706 23.979C64.3138 24.0304 63.0814 24.2647 62.4765 24.4701C61.5595 24.2101 60.6653 23.7704 60.0605 23.305C59.9824 23.2536 59.9564 23.2023 59.9824 23.122L60.1385 22.785C60.9514 22.9391 62.1091 23.045 62.87 23.045C63.6309 23.045 67.4648 23.0193 71.3214 22.968V17.4474C67.881 17.242 65.3609 15.0145 65.3609 11.9301C65.3609 8.6402 68.1704 6.35815 71.8969 6.35815C75.6235 6.35815 78.433 8.63699 78.433 11.9301C78.433 14.96 76.0169 17.1393 72.7099 17.4474V22.9391C76.095 22.8877 79.246 22.8364 80.0329 22.785L80.9011 22.4223ZM71.8969 16.4653C74.6805 16.4653 76.9112 14.7545 76.9112 11.9301C76.9112 9.07992 74.6805 7.36919 71.8969 7.36919C69.1134 7.36919 66.8827 9.07992 66.8827 11.9301C66.8827 14.7545 69.1134 16.4653 71.8969 16.4653Z" fill="#B2B1B0"/>
</g>
<defs>
<clipPath id="clip0_61_401">
<rect width="84" height="32" fill="white"/>
</clipPath>
</defs>
</svg>
