<svg width="80" height="80" viewBox="0 0 80 80" fill="none" xmlns="http://www.w3.org/2000/svg">
<path d="M80 40C80 62.0914 62.0914 80 40 80C17.9086 80 0 62.0914 0 40C0 17.9086 17.9086 0 40 0C62.0914 0 80 17.9086 80 40Z" fill="white" fill-opacity="0.2"/>
<path d="M40.0001 43.1047C39.6066 43.1044 39.2235 42.978 38.9071 42.7439L38.8563 42.7047L31.8212 36.9357H26.4621C25.9725 36.9357 25.5029 36.7412 25.1567 36.395C24.8105 36.0488 24.616 35.5792 24.616 35.0896V26.4753C24.616 25.9857 24.8105 25.5161 25.1567 25.1699C25.5029 24.8237 25.9725 24.6292 26.4621 24.6292H31.8196L38.8548 18.8602L38.9055 18.8209C39.1806 18.6184 39.5064 18.4962 39.8467 18.4678C40.1871 18.4394 40.5287 18.506 40.8334 18.6602C41.1382 18.8144 41.3942 19.0501 41.573 19.3411C41.7518 19.6321 41.8464 19.967 41.8462 20.3086V41.2571C41.8462 41.7467 41.6517 42.2162 41.3055 42.5624C40.9593 42.9087 40.4897 43.1032 40.0001 43.1032V43.1047ZM46.7691 36.9364C46.5592 36.9363 46.3528 36.8825 46.1695 36.7802C45.9863 36.6778 45.8323 36.5303 45.7221 36.3516C45.6119 36.1729 45.5493 35.969 45.5402 35.7593C45.5311 35.5496 45.5757 35.341 45.6699 35.1534C46.3999 33.6996 46.7699 32.2305 46.7699 30.7828C46.7699 29.2936 46.4114 27.866 45.6738 26.4191C45.5324 26.1292 45.5106 25.7954 45.6128 25.4895C45.7151 25.1836 45.9334 24.9301 46.2207 24.7835C46.508 24.637 46.8414 24.609 47.1491 24.7058C47.4568 24.8025 47.7142 25.0161 47.866 25.3007C48.7844 27.1029 49.2305 28.896 49.2305 30.7828C49.2305 32.6158 48.769 34.4581 47.8691 36.258C47.7666 36.462 47.6095 36.6334 47.4153 36.7532C47.221 36.873 46.9973 36.9365 46.7691 36.9364Z" fill="white"/>
<path d="M50.4619 40.628C50.2457 40.6282 50.0334 40.5715 49.8461 40.4635C49.6589 40.3556 49.5034 40.2002 49.3953 40.0131C49.2871 39.826 49.2301 39.6137 49.2301 39.3976C49.2301 39.1814 49.2869 38.9691 49.395 38.7819C50.8465 36.2474 51.6926 34.1244 51.6926 30.7822C51.6926 27.3885 50.8511 25.2809 49.3981 22.7863C49.2481 22.5051 49.2131 22.1766 49.3005 21.87C49.3878 21.5635 49.5907 21.3028 49.8664 21.1428C50.1421 20.9828 50.4691 20.936 50.7786 21.0123C51.0881 21.0886 51.3559 21.282 51.5257 21.5518C53.1479 24.3332 54.1541 26.85 54.1541 30.7822C54.1541 34.6559 53.1495 37.1851 51.5295 40.0127C51.4214 40.2 51.2657 40.3556 51.0783 40.4636C50.8908 40.5716 50.6782 40.6283 50.4619 40.628Z" fill="white"/>
<g opacity="0.9">
<path d="M33.9377 64.2957C36.6515 64.2957 38.7931 62.4495 38.7931 59.1264C38.7931 55.8034 36.5223 53.9941 33.9377 53.9941C31.3531 53.9941 29.1008 55.8218 29.1008 59.1264C29.1008 62.4126 31.2054 64.2957 33.9377 64.2957ZM33.9377 63.6865C32.2946 63.6865 31.3162 62.1541 31.3162 59.1449C31.3162 56.1357 32.2946 54.6034 33.9377 54.6034C35.5623 54.6034 36.5408 56.1357 36.5408 59.1449C36.5408 62.1541 35.5623 63.6865 33.9377 63.6865Z" fill="white"/>
<path d="M40.3125 64.0003H45.1495V63.4649L43.211 63.2803H42.2879L40.3125 63.4649V64.0003ZM41.6972 64.0003H43.8941C43.8572 63.0957 43.8387 60.9911 43.8387 59.7172V56.3018L43.7095 54.1788L43.4695 54.0311L40.1833 54.9172V55.3788L41.6972 55.4895C41.7525 56.3941 41.771 57.2064 41.771 58.4434V59.7172C41.771 60.9911 41.7525 63.0957 41.6972 64.0003ZM46.6449 64.0003H51.4818V63.4649L49.5064 63.2803H48.5833L46.6449 63.4649V64.0003ZM48.011 64.0003H50.2079C50.171 63.0957 50.1341 61.028 50.1341 59.7172V57.5018C50.1341 55.028 49.0818 53.9941 47.4202 53.9941C46.091 53.9941 44.8541 54.6034 43.4879 56.3018H43.2479L43.3587 57.0218C44.5772 55.6372 45.7402 55.1203 46.5341 55.1203C47.531 55.1203 48.0664 55.7111 48.0664 57.3911V59.7172C48.0664 61.028 48.0479 63.0957 48.011 64.0003Z" fill="white"/>
</g>
<path fill-rule="evenodd" clip-rule="evenodd" d="M79.8769 0.123077H0.123077V79.8769H79.8769V0.123077ZM0 0V80H80V0H0Z" fill="black" fill-opacity="0.01"/>
<path fill-rule="evenodd" clip-rule="evenodd" d="M54.031 18.585H24.7387V42.9542H54.031V18.585ZM24.6156 18.4619V43.0773H54.1541V18.4619H24.6156Z" fill="black" fill-opacity="0.01"/>
<path fill-rule="evenodd" clip-rule="evenodd" d="M51.5685 54.2769H28.4301V63.8769H51.5685V54.2769ZM28.307 54.1538V64H51.6916V54.1538H28.307Z" fill="black" fill-opacity="0.01"/>
</svg>
