<svg width="494" height="188" viewBox="0 0 494 188" fill="none" xmlns="http://www.w3.org/2000/svg">
<g clip-path="url(#clip0_40_19)">
<path d="M163.742 84.8546L175.625 84.402L180.554 81.6678C183.343 81.5735 186.782 81.6489 189.647 81.8752C186.992 61.4913 177.707 43.1438 164.01 29.0203L163.742 35.3938V84.8546Z" fill="#B14C59"/>
<path d="M155.566 109.066C133.672 116.213 104.061 121.399 83.6956 122.926C81.9953 123.077 80.4669 123.077 79.0723 123.077C74.9076 123.077 72.1375 120.644 70.7429 116.684C70.2844 115.459 70.1316 113.177 70.1316 110.292V57.9085C67.3615 56.0794 62.7191 54.4012 58.2678 53.4961L58.8792 50.3093C59.032 49.7059 59.3377 49.5551 60.2738 49.5551C65.0498 49.5551 73.2264 50.0076 76.7798 50.7807C78.1744 51.0825 78.7858 51.8367 78.7858 53.3641L78.6138 60.341V113.007C78.6138 114.837 79.2252 115.591 81.2311 115.591C100.813 115.138 134.436 110.575 155.566 104.333V32.6407C152.643 29.586 147.695 27.0026 142.154 25.3244L143.071 22.2696C143.224 21.8171 143.53 21.6662 144.619 21.6662C148.421 21.7793 154.477 22.8919 158.909 24.0987C142.021 9.12658 119.707 0 95.2345 0C42.6406 0 0 42.0879 0 94C0 145.912 42.6406 188 95.2345 188C118.331 188 139.499 179.892 155.986 166.39C155.718 159.508 155.566 147.986 155.566 141.801V109.066Z" fill="#B14C59"/>
<path d="M163.742 138.596C163.742 144.913 163.131 153.587 162.099 160.922C179.618 143.876 190.469 120.192 190.469 94.0001C190.469 92.4727 190.431 90.9453 190.354 89.4368L163.742 89.7196V138.596Z" fill="#B14C59"/>
<path d="M301.789 22.2885C301.942 21.8359 302.248 21.6851 303.337 21.6851C308.266 21.8359 317.053 23.665 321.065 25.1924C322.307 25.6449 322.766 26.5689 322.766 27.9266L322.46 35.3749V138.596C322.46 146.968 321.371 159.451 319.69 167.522H314.761C314.455 160.828 314.303 148.345 314.303 141.801V110.122C290.403 117.59 258.327 123.058 236.109 124.435C234.409 124.585 232.88 124.585 231.486 124.585C227.168 124.585 224.398 122.153 223.003 118.042C222.545 116.816 222.392 114.535 222.392 111.65V57.0034C219.928 55.1743 216.069 53.6469 212.057 53.0435L212.668 50.1585C212.821 49.7059 213.279 49.4042 214.216 49.4042C218.227 49.4042 227.321 50.0076 231.18 50.7807C240.579 50.6299 260.792 50.0076 265.873 49.5551L269.885 47.4243C273.439 47.4243 279.284 47.726 282.227 48.3482C283.296 48.4991 283.774 49.1025 283.774 50.0265C283.774 51.8556 283.315 53.3829 282.685 53.9864C282.227 54.4389 281.596 54.7406 280.832 54.7406L231.027 56.1172V114.573C231.027 116.251 231.639 117.005 233.645 117.005C254.927 116.703 291.32 111.989 314.303 105.276V32.6407C311.38 29.6048 306.432 27.0026 300.891 25.3244L301.789 22.2885Z" fill="#B2B1B0"/>
<path d="M475.294 131.732C480.7 131.883 488.246 132.656 491.647 133.712C492.736 134.014 493.5 134.768 493.5 135.843C493.5 137.974 491.953 139.803 490.73 140.406C486.565 139.954 478.083 139.652 473.613 139.652C462.819 139.501 389.401 140.406 381.702 140.878C377.843 141.179 370.603 142.556 367.049 143.763C361.662 142.235 356.408 139.652 352.855 136.918C352.396 136.616 352.243 136.314 352.396 135.843L353.313 133.863C358.089 134.768 364.89 135.39 369.361 135.39C373.831 135.39 396.355 135.239 419.013 134.938V102.504C398.8 101.298 383.995 88.2111 383.995 70.09C383.995 50.762 400.501 37.355 422.394 37.355C444.288 37.355 460.794 50.7431 460.794 70.09C460.794 87.8906 446.599 100.694 427.17 102.504V134.768C447.058 134.466 465.57 134.165 470.193 133.863L475.294 131.732ZM422.394 96.7343C438.747 96.7343 451.853 86.6838 451.853 70.09C451.853 53.3453 438.747 43.2948 422.394 43.2948C406.041 43.2948 392.935 53.3453 392.935 70.09C392.935 86.6838 406.041 96.7343 422.394 96.7343Z" fill="#B2B1B0"/>
</g>
<defs>
<clipPath id="clip0_40_19">
<rect width="493.5" height="188" fill="white"/>
</clipPath>
</defs>
</svg>
