<svg width="229" height="87" viewBox="0 0 229 87" fill="none" xmlns="http://www.w3.org/2000/svg">
<g clip-path="url(#clip0_45_239)">
<path d="M75.7744 39.2679L81.2734 39.0585L83.5543 37.7932C84.845 37.7495 86.4364 37.7844 87.7625 37.8892C86.5336 28.4562 82.237 19.9656 75.8982 13.4297L75.7744 16.3791V39.2679Z" fill="#B14C59"/>
<path d="M71.9905 50.4722C61.8589 53.7794 48.1557 56.1791 38.7315 56.886C37.9446 56.9558 37.2374 56.9558 36.592 56.9558C34.6647 56.9558 33.3828 55.8301 32.7374 53.9976C32.5252 53.4304 32.4545 52.3745 32.4545 51.0394V26.7981C31.1726 25.9517 29.0243 25.175 26.9644 24.7562L27.2473 23.2814C27.318 23.0022 27.4595 22.9324 27.8927 22.9324C30.1029 22.9324 33.8867 23.1418 35.5311 23.4996C36.1765 23.6392 36.4594 23.9883 36.4594 24.6951L36.3798 27.9238V52.296C36.3798 53.1424 36.6627 53.4915 37.591 53.4915C46.6528 53.282 62.2126 51.1703 71.9905 48.282V15.105C70.6378 13.6914 68.3481 12.4959 65.7842 11.7193L66.2086 10.3056C66.2793 10.0962 66.4208 10.0264 66.9247 10.0264C68.684 10.0787 71.4865 10.5936 73.5376 11.1521C65.7224 4.22347 55.3963 0 44.0713 0C19.7326 0 0 19.4768 0 43.5C0 67.5232 19.7326 87 44.0713 87C54.7598 87 64.5554 83.2477 72.185 76.9998C72.0612 73.8147 71.9905 68.483 71.9905 65.6209V50.4722Z" fill="#B14C59"/>
<path d="M75.7742 64.1373C75.7742 67.0606 75.4913 71.0746 75.0139 74.4691C83.1209 66.5807 88.1425 55.6206 88.1425 43.4999C88.1425 42.7931 88.1248 42.0863 88.0894 41.3882L75.7742 41.5191V64.1373Z" fill="#B14C59"/>
<path d="M139.658 10.3144C139.728 10.105 139.87 10.0352 140.374 10.0352C142.655 10.105 146.721 10.9514 148.578 11.6582C149.153 11.8677 149.365 12.2952 149.365 12.9235L149.223 16.3704V64.1375C149.223 68.0119 148.719 73.7886 147.942 77.5234H145.661C145.519 74.4256 145.448 68.6489 145.448 65.6209V50.9609C134.389 54.4165 119.545 56.9471 109.263 57.5841C108.476 57.6539 107.769 57.6539 107.124 57.6539C105.126 57.6539 103.844 56.5282 103.198 54.6259C102.986 54.0587 102.915 53.0029 102.915 51.6678V26.3793C101.775 25.5328 99.9891 24.826 98.1326 24.5468L98.4155 23.2117C98.4862 23.0023 98.6984 22.8626 99.1316 22.8626C100.988 22.8626 105.196 23.1419 106.982 23.4997C111.332 23.4298 120.685 23.1419 123.037 22.9324L124.894 21.9464C126.538 21.9464 129.243 22.086 130.605 22.374C131.1 22.4438 131.321 22.723 131.321 23.1506C131.321 23.997 131.109 24.7039 130.817 24.9831C130.605 25.1925 130.313 25.3321 129.959 25.3321L106.911 25.9692V53.0203C106.911 53.7969 107.194 54.146 108.123 54.146C117.971 54.0064 134.813 51.8248 145.448 48.7183V15.1051C144.096 13.7002 141.806 12.4959 139.242 11.7193L139.658 10.3144Z" fill="#B2B1B0"/>
<path d="M219.95 60.9612C222.452 61.031 225.944 61.3887 227.517 61.8774C228.021 62.017 228.375 62.3661 228.375 62.8635C228.375 63.8495 227.659 64.696 227.093 64.9752C225.166 64.7658 221.241 64.6261 219.172 64.6261C214.177 64.5563 180.202 64.9752 176.639 65.1933C174.853 65.333 171.502 65.97 169.858 66.5285C167.365 65.8216 164.934 64.6261 163.289 63.3608C163.077 63.2212 163.006 63.0816 163.077 62.8635L163.501 61.9472C165.712 62.3661 168.859 62.654 170.928 62.654C172.996 62.654 183.42 62.5842 193.905 62.4446V47.4356C184.551 46.8771 177.7 40.8211 177.7 32.4353C177.7 23.4909 185.338 17.2866 195.47 17.2866C205.601 17.2866 213.24 23.4822 213.24 32.4353C213.24 40.6728 206.671 46.5979 197.68 47.4356V62.3661C206.883 62.2264 215.45 62.0868 217.589 61.9472L219.95 60.9612ZM195.47 44.7654C203.037 44.7654 209.102 40.1143 209.102 32.4353C209.102 24.6864 203.037 20.0354 195.47 20.0354C187.902 20.0354 181.837 24.6864 181.837 32.4353C181.837 40.1143 187.902 44.7654 195.47 44.7654Z" fill="#B2B1B0"/>
</g>
<defs>
<clipPath id="clip0_45_239">
<rect width="228.375" height="87" fill="white"/>
</clipPath>
</defs>
</svg>
