<svg width="33" height="33" viewBox="0 0 33 33" fill="none" xmlns="http://www.w3.org/2000/svg">
<circle cx="16.5" cy="16.5" r="16.5" fill="#B14C59"/>
<path d="M22.2293 11.6357C22.1116 11.5764 21.9971 11.5114 21.8861 11.4409C21.5633 11.2328 21.2673 10.9877 21.0046 10.7107C20.3471 9.97721 20.1016 9.23315 20.0112 8.71219H20.0148C19.9393 8.27978 19.9705 8 19.9752 8H16.9809V19.2896C16.9809 19.4411 16.9809 19.5909 16.9744 19.739C16.9744 19.7574 16.9725 19.7744 16.9715 19.7942C16.9715 19.8024 16.9715 19.8109 16.9696 19.8194V19.8257C16.9381 20.2308 16.8049 20.6221 16.5818 20.9652C16.3588 21.3083 16.0527 21.5927 15.6904 21.7934C15.3129 22.0028 14.8859 22.1127 14.4515 22.1121C13.0564 22.1121 11.9257 21.0029 11.9257 19.6331C11.9257 18.2632 13.0564 17.154 14.4515 17.154C14.7156 17.1538 14.978 17.1943 15.2291 17.2741L15.2328 14.3014C14.4705 14.2054 13.6961 14.2644 12.9585 14.4748C12.2208 14.6853 11.5359 15.0425 10.9469 15.5239C10.4308 15.9611 9.99687 16.4828 9.66472 17.0655C9.53832 17.278 9.06142 18.1318 9.00367 19.5176C8.96735 20.3042 9.20961 21.1191 9.32512 21.4559V21.463C9.39776 21.6613 9.67925 22.3381 10.138 22.9086C10.5079 23.3663 10.9449 23.7683 11.435 24.1017V24.0947L11.4423 24.1017C12.8919 25.0622 14.4991 24.9992 14.4991 24.9992C14.7773 24.9882 15.7093 24.9992 16.7677 24.5101C17.9416 23.9679 18.6099 23.1601 18.6099 23.1601C19.0369 22.6774 19.3763 22.1273 19.6138 21.5335C19.8848 20.839 19.9752 20.006 19.9752 19.6731V13.6837C20.0115 13.705 20.4953 14.017 20.4953 14.017C20.4953 14.017 21.1923 14.4526 22.2798 14.7363C23.06 14.9381 24.1111 14.9806 24.1111 14.9806V12.0823C23.7428 12.1212 22.995 12.0079 22.2293 11.6357Z" fill="white"/>
</svg>
