<svg width="84" height="32" viewBox="0 0 84 32" fill="none" xmlns="http://www.w3.org/2000/svg">
<g clip-path="url(#clip0_50_209)">
<path d="M27.871 14.4432L29.8936 14.3661L30.7326 13.9007C31.2074 13.8847 31.7927 13.8975 32.2804 13.936C31.8284 10.4664 30.2481 7.34346 27.9166 4.93945L27.871 6.02431V14.4432Z" fill="#B14C59"/>
<path d="M26.4793 18.5645C22.7527 19.7809 17.7125 20.6636 14.2461 20.9236C13.9566 20.9492 13.6965 20.9492 13.4591 20.9492C12.7502 20.9492 12.2787 20.5352 12.0413 19.8612C11.9633 19.6526 11.9373 19.2642 11.9373 18.7731V9.85677C11.4658 9.54544 10.6756 9.25978 9.91793 9.10572L10.022 8.56329C10.048 8.46058 10.1 8.43491 10.2594 8.43491C11.0723 8.43491 12.4641 8.51194 13.0689 8.64353C13.3063 8.69489 13.4103 8.82327 13.4103 9.08325L13.3811 10.2708V19.2353C13.3811 19.5466 13.4851 19.675 13.8266 19.675C17.1596 19.598 22.8828 18.8213 26.4793 17.7589V5.55587C25.9817 5.03591 25.1395 4.59619 24.1965 4.31053L24.3526 3.79057C24.3786 3.71354 24.4306 3.68786 24.616 3.68786C25.2631 3.70712 26.2939 3.89649 27.0483 4.10191C24.1737 1.55346 20.3757 0 16.2101 0C7.25797 0 0 7.16389 0 16C0 24.8361 7.25797 32 16.2101 32C20.1415 32 23.7445 30.6199 26.5508 28.3218C26.5053 27.1503 26.4793 25.1892 26.4793 24.1364V18.5645Z" fill="#B14C59"/>
<path d="M27.871 23.5906C27.871 24.6659 27.767 26.1423 27.5914 27.3908C30.5733 24.4893 32.4203 20.458 32.4203 15.9999C32.4203 15.7399 32.4138 15.4799 32.4008 15.2231L27.871 15.2713V23.5906Z" fill="#B14C59"/>
<path d="M51.3684 3.79363C51.3944 3.71659 51.4464 3.69092 51.6318 3.69092C52.4708 3.7166 53.9666 4.02793 54.6494 4.28791C54.8608 4.36494 54.9389 4.52221 54.9389 4.75331L54.8868 6.02111V23.5906C54.8868 25.0157 54.7015 27.1405 54.4153 28.5142H53.5764C53.5243 27.3748 53.4983 25.25 53.4983 24.1363V18.7441C49.4303 20.0151 43.9706 20.9459 40.1888 21.1802C39.8994 21.2059 39.6392 21.2059 39.4018 21.2059C38.6669 21.2059 38.1954 20.7918 37.9581 20.0921C37.88 19.8835 37.854 19.4951 37.854 19.0041V9.70255C37.4345 9.39122 36.7777 9.13124 36.0948 9.02853L36.1988 8.53746C36.2249 8.46043 36.3029 8.40907 36.4622 8.40907C37.1451 8.40907 38.693 8.51178 39.3498 8.64338C40.9497 8.6177 44.3901 8.51178 45.2551 8.43475L45.9379 8.07206C46.5428 8.07206 47.5378 8.12342 48.0386 8.22933C48.2207 8.25501 48.302 8.35772 48.302 8.51499C48.302 8.82632 48.2239 9.0863 48.1166 9.18901C48.0386 9.26604 47.9313 9.3174 47.8012 9.3174L39.3238 9.5517V19.5015C39.3238 19.7872 39.4279 19.9156 39.7693 19.9156C43.3918 19.8642 49.5864 19.0618 53.4983 17.9192V5.55571C53.0008 5.03896 52.1586 4.59603 51.2156 4.31038L51.3684 3.79363Z" fill="#B2B1B0"/>
<path d="M80.901 22.4226C81.8213 22.4483 83.1058 22.5799 83.6846 22.7596C83.8699 22.811 84 22.9393 84 23.1223C84 23.485 83.7366 23.7963 83.5285 23.899C82.8196 23.822 81.3758 23.7706 80.6149 23.7706C78.7776 23.745 66.281 23.899 64.9706 23.9793C64.3137 24.0306 63.0813 24.2649 62.4765 24.4703C61.5595 24.2104 60.6652 23.7706 60.0604 23.3052C59.9823 23.2539 59.9563 23.2025 59.9824 23.1223L60.1384 22.7853C60.9514 22.9393 62.109 23.0453 62.8699 23.0453C63.6308 23.0453 67.4647 23.0196 71.3213 22.9682V17.4477C67.8809 17.2423 65.3608 15.0148 65.3608 11.9303C65.3608 8.64044 68.1703 6.3584 71.8969 6.3584C75.6234 6.3584 78.4329 8.63723 78.4329 11.9303C78.4329 14.9602 76.0169 17.1395 72.7098 17.4477V22.9393C76.0949 22.888 79.2459 22.8366 80.0328 22.7853L80.901 22.4226ZM71.8969 16.4655C74.6804 16.4655 76.9111 14.7548 76.9111 11.9303C76.9111 9.08016 74.6804 7.36943 71.8969 7.36943C69.1133 7.36943 66.8826 9.08016 66.8826 11.9303C66.8826 14.7548 69.1133 16.4655 71.8969 16.4655Z" fill="#B2B1B0"/>
</g>
<defs>
<clipPath id="clip0_50_209">
<rect width="84" height="32" fill="white"/>
</clipPath>
</defs>
</svg>
