<svg width="46" height="16" viewBox="0 0 46 16" fill="none" xmlns="http://www.w3.org/2000/svg">
<path d="M0.51709 8C0.51709 3.85786 3.87495 0.5 8.01709 0.5H37.5625C41.7047 0.5 45.0625 3.85786 45.0625 8C45.0625 12.1421 41.7047 15.5 37.5625 15.5H8.01709C3.87495 15.5 0.51709 12.1421 0.51709 8Z" fill="#B14C59"/>
<path d="M12.9146 11.8219C12.9028 10.6283 12.9028 9.411 12.9028 8.0401H13.6119C15.3256 8.0401 16.0819 8.67828 16.0819 9.94282C16.0819 11.1719 15.2665 11.8219 13.7419 11.8219H12.9146ZM13.7419 4.09282C15.0892 4.09282 15.7037 4.61282 15.7037 5.74737C15.7037 6.95282 15.0183 7.55555 13.541 7.55555H12.9028C12.9028 6.37373 12.9028 5.22737 12.9146 4.09282H13.7419ZM10.3501 3.60828V4.03373L11.5201 4.16373C11.5437 5.31009 11.5437 6.46828 11.5437 7.62646V8.20555C11.5437 9.411 11.5437 10.5928 11.5201 11.7628L10.3501 11.8928V12.3183H13.931C16.5783 12.3183 17.5001 11.1128 17.5001 9.931C17.5001 8.8201 16.7319 7.96919 14.8646 7.74464C16.4483 7.43737 17.0274 6.6101 17.0274 5.7001C17.0274 4.48282 16.0937 3.60828 14.1437 3.60828H10.3501Z" fill="white"/>
<path d="M19.9026 8.70191C19.9972 7.08282 20.7653 6.38555 21.5335 6.38555C22.3372 6.38555 22.8926 7.05919 22.8926 7.93373C22.8926 8.4301 22.7626 8.70191 22.219 8.70191H19.9026ZM24.0272 9.16282C24.0862 8.97373 24.1099 8.73737 24.1099 8.44191C24.1099 6.941 23.1172 5.92464 21.6162 5.92464C20.009 5.92464 18.5435 7.17737 18.5435 9.22191C18.5435 11.3019 19.8081 12.4956 21.5926 12.4956C22.739 12.4956 23.6017 11.9283 24.0744 10.9946L23.8381 10.8292C23.389 11.3965 22.869 11.7392 22.0299 11.7392C20.8126 11.7392 19.9262 10.9237 19.8908 9.16282H24.0272Z" fill="white"/>
<path d="M28.7834 11.491C28.4525 11.7392 28.2161 11.8574 27.9207 11.8574C27.448 11.8574 27.1525 11.5737 27.1525 10.9001V6.63373H28.8307V6.10191H27.1643L27.2234 4.27009H26.3725L25.9707 6.07828L24.8243 6.20828V6.63373H25.8998V9.75373C25.8998 10.2383 25.888 10.5455 25.888 10.9001C25.888 11.9874 26.4434 12.4956 27.4361 12.4956C28.157 12.4956 28.6889 12.2237 29.0198 11.751L28.7834 11.491Z" fill="white"/>
<path d="M33.2754 11.0301C32.6136 11.5619 32.3182 11.7274 31.8927 11.7274C31.3018 11.7274 30.8882 11.4201 30.8882 10.7228C30.8882 10.1319 31.16 9.61191 32.2 9.19828C32.4482 9.10373 32.85 8.97373 33.2754 8.85555V11.0301ZM35.5091 11.5383C35.3082 11.7746 35.1782 11.8692 34.9654 11.8692C34.6936 11.8692 34.5163 11.6801 34.5163 11.0892V8.18191C34.5163 6.56282 33.8663 5.92464 32.4245 5.92464C30.9709 5.92464 30.0136 6.551 29.8127 7.56737C29.86 7.9101 30.0845 8.08737 30.4391 8.08737C30.8054 8.08737 31.0536 7.851 31.1482 7.35464L31.3491 6.4801C31.6091 6.40919 31.8336 6.38555 32.0463 6.38555C32.9327 6.38555 33.2754 6.72828 33.2754 7.99282V8.47737C32.7791 8.59555 32.2591 8.74919 31.8573 8.86737C30.1318 9.45828 29.6354 10.0374 29.6354 10.9119C29.6354 11.9283 30.3682 12.4956 31.3372 12.4956C32.1645 12.4956 32.6254 12.141 33.3109 11.4437C33.4291 12.0819 33.8545 12.4719 34.5163 12.4719C35.0482 12.4719 35.4263 12.2828 35.71 11.751L35.5091 11.5383Z" fill="white"/>
</svg>
