<svg width="6" height="26" viewBox="0 0 6 26" fill="none" xmlns="http://www.w3.org/2000/svg">
<path d="M1.42864 25.1437C1.22284 25.1436 1.0209 25.0878 0.844137 24.9824C0.667378 24.877 0.522363 24.7258 0.424404 24.5448C0.326445 24.3638 0.279177 24.1598 0.287592 23.9541C0.296007 23.7485 0.35979 23.549 0.47221 23.3766C2.41792 20.3916 3.71435 17.4123 3.71435 12.5723C3.71435 7.82228 2.41578 4.81371 0.465069 1.75871C0.384306 1.63208 0.329276 1.49078 0.303121 1.34288C0.276966 1.19498 0.280195 1.04338 0.312629 0.896727C0.345064 0.750077 0.406065 0.611252 0.492151 0.488177C0.578237 0.365101 0.687722 0.260187 0.814354 0.179424C0.940985 0.0986612 1.08228 0.0436309 1.23018 0.0174756C1.37808 -0.00867979 1.52969 -0.00544804 1.67634 0.0269861C1.82299 0.0594203 1.96181 0.120422 2.08489 0.206508C2.20796 0.292594 2.31288 0.402078 2.39364 0.52871C4.55793 3.92157 6.00007 7.268 6.00007 12.5723C6.00007 17.1973 4.95293 20.6887 2.38578 24.6251C2.28195 24.7844 2.14005 24.9152 1.97292 25.0057C1.80579 25.0963 1.61872 25.1437 1.42864 25.1437Z" fill="#B14C59"/>
</svg>
