<svg width="6" height="19" viewBox="0 0 6 19" fill="none" xmlns="http://www.w3.org/2000/svg">
<path d="M2.00005 18.7152C1.79941 18.7152 1.6023 18.6624 1.42853 18.5621C1.25476 18.4619 1.11045 18.3176 1.01011 18.1438C0.909775 17.9701 0.856945 17.773 0.856934 17.5724C0.856922 17.3717 0.909731 17.1746 1.01005 17.0009C2.36076 14.6502 3.14291 12.6802 3.14291 9.5723C3.14291 6.4173 2.36219 4.46087 1.0129 2.14801C0.864926 1.88646 0.825918 1.57716 0.904325 1.28706C0.982732 0.996955 1.17225 0.74941 1.43183 0.598015C1.69142 0.446621 2.00019 0.40356 2.29129 0.478158C2.5824 0.552755 2.83241 0.739006 2.98719 0.996586C4.49433 3.58016 5.42862 5.91587 5.42862 9.5723C5.42862 13.1744 4.49576 15.5216 2.99076 18.1437C2.89037 18.3176 2.74595 18.462 2.57203 18.5623C2.39811 18.6626 2.20083 18.7153 2.00005 18.7152Z" fill="#B14C59"/>
</svg>
