<svg width="23" height="23" viewBox="0 0 23 23" fill="none" xmlns="http://www.w3.org/2000/svg">
<path d="M14.2857 23.0008C13.9206 23.0008 13.565 22.8837 13.2714 22.6665C13.2551 22.6552 13.2394 22.643 13.2243 22.6301L6.69714 17.2865H1.71429C1.25963 17.2865 0.823594 17.1059 0.502103 16.7844C0.180612 16.4629 0 16.0269 0 15.5722V7.57225C0 7.11759 0.180612 6.68156 0.502103 6.36006C0.823594 6.03857 1.25963 5.85796 1.71429 5.85796H6.69643L13.2229 0.514391C13.238 0.501463 13.2537 0.489304 13.27 0.477962C13.5253 0.290187 13.8277 0.176858 14.1435 0.150564C14.4593 0.12427 14.7762 0.186041 15.0591 0.329013C15.3419 0.471986 15.5796 0.690564 15.7457 0.96047C15.9118 1.23038 15.9998 1.54104 16 1.85796V21.2865C16 21.7412 15.8194 22.1772 15.4979 22.4987C15.1764 22.8202 14.7404 23.0008 14.2857 23.0008ZM20.5714 17.2865C20.3764 17.2865 20.1846 17.2365 20.0144 17.1414C19.8441 17.0463 19.701 16.9093 19.5987 16.7432C19.4964 16.5772 19.4383 16.3878 19.4299 16.1929C19.4215 15.9981 19.4631 15.8043 19.5507 15.6301C20.2286 14.2822 20.5721 12.9158 20.5721 11.5722C20.5721 10.188 20.2393 8.86225 19.5543 7.52011C19.4231 7.25088 19.4027 6.9409 19.4977 6.65686C19.5927 6.37281 19.7954 6.13741 20.0622 6.0013C20.329 5.86519 20.6386 5.83925 20.9243 5.92906C21.21 6.01887 21.4491 6.21726 21.59 6.48153C22.4421 8.15225 22.8571 9.81796 22.8571 11.5722C22.8571 13.2765 22.4286 14.9872 21.5929 16.6572C21.4977 16.8465 21.3517 17.0056 21.1714 17.1167C20.991 17.2278 20.7833 17.2866 20.5714 17.2865Z" fill="#B14C59"/>
</svg>
